<svg width="32" height="32" viewBox="0 0 32 32" fill="none" xmlns="http://www.w3.org/2000/svg">
<path d="M20.5 27L16.2633 29.8245C16.1025 29.9317 15.8944 29.9366 15.7287 29.8372L11 27M6 22.4338L5.90244 22.2663C4.65645 20.1271 4 17.6957 4 15.2201V4.80441C4 4.43383 4.39548 4.17635 4.74541 4.29829C5.59111 4.59299 7.10257 5 9 5C11.487 5 14.7093 2.90233 15.6983 2.21512C15.8798 2.08896 16.1202 2.08896 16.3017 2.21512C17.2907 2.90233 20.513 5 23 5C24.8974 5 26.4089 4.59299 27.2546 4.29829C27.6045 4.17635 28 4.43383 28 4.80441V15.1643C28 17.6752 27.3247 20.1398 26.0449 22.3001L26 22.3759" stroke="#111111" stroke-width="0.8"/>
<path d="M26.8543 26.3848L22.5 8H9.5L5.14571 26.3848C5.07134 26.6988 5.30953 27 5.63225 27H26.3677C26.6905 27 26.9287 26.6988 26.8543 26.3848Z" stroke="#111111" stroke-width="0.8" stroke-linecap="round" stroke-linejoin="round"/>
<path d="M11.9316 11H20.0674" stroke="#111111" stroke-width="0.8" stroke-linecap="round" stroke-linejoin="round"/>
<path d="M10.5234 14H21.4773" stroke="#111111" stroke-width="0.8" stroke-linecap="round" stroke-linejoin="round"/>
<path d="M10.0645 16H21.9372" stroke="#111111" stroke-width="0.8" stroke-linecap="round" stroke-linejoin="round"/>
<path d="M12.2695 22.5392L14.0871 24.3568L19.7307 19" stroke="#111111" stroke-width="0.8" stroke-linecap="round" stroke-linejoin="round"/>
</svg>
