<svg width="71" height="88" viewBox="0 0 71 88" fill="none" xmlns="http://www.w3.org/2000/svg">
<g clip-path="url(#clip0_30_2948)">
<mask id="mask0_30_2948" style="mask-type:luminance" maskUnits="userSpaceOnUse" x="0" y="0" width="71" height="88">
<path d="M70.8788 0H0.666016V88H70.8788V0Z" fill="white"/>
</mask>
<g mask="url(#mask0_30_2948)">
<path d="M52.2826 36.444L50.2373 36.8023L50.7704 32.712L50.2373 31.9083L50.7704 27.2908L56.0195 29.4255L52.2775 36.444M60.6485 48.7046H53.7948L60.2896 38.4917L62.2427 31.8264L66.3385 33.2496C65.9796 38.4047 64.288 43.6468 60.6433 48.7097M58.2392 38.1385L55.6607 40.3602L50.4987 48.7046H47.1206L50.4987 42.7509L53.1694 40.5343L56.9986 29.7787L61.0893 31.4681L58.2392 38.1385ZM49.4324 17.3389L35.8123 9.42967L30.8297 8.53892V12.1838L34.6538 15.7417L29.3175 15.2963C29.3175 15.2963 29.4918 15.5625 33.9464 20.2723L54.2356 23.6458L57.7932 25.9546L48.5354 26.4L44.7062 40.3551L32.1574 48.6995H23.9709L26.7288 43.2884L26.2828 43.1093L18.896 48.7046H17.1173L24.6834 38.1333C25.0371 35.1079 24.8629 36.444 25.3037 31.0227L24.1503 29.4255L21.1208 41.1588L14.8002 48.7046H13.1958L16.9327 43.4625L22.1819 27.3778L20.8491 28.0023L18.5372 34.4014L16.9327 35.2922C16.9327 35.2922 13.1958 44.3532 11.2376 48.8019C8.38743 44.7167 5.18359 39.2084 5.18359 29.6047C5.19897 15.1991 17.5735 0 36.1762 0C54.779 0 63.5857 14.2213 65.1902 21.5981L49.4376 17.3338L49.4324 17.3389ZM45.2495 48.7046H40.9743L48.8993 38.8449L49.699 40.3551L45.2495 48.6995V48.7046ZM35.9917 60.9755C28.4255 60.9755 19.1677 58.3083 12.4935 50.1329H59.3977C53.9691 57.1565 44.6241 60.9755 35.9917 60.9755ZM36.1711 1.96067C18.732 1.95556 7.33657 16.269 7.33657 29.5995C7.33657 37.2477 9.20761 41.0667 11.2529 44.7116C13.8365 37.7801 18.9934 23.9991 18.9934 23.9991C18.9934 23.9991 21.3976 22.7551 21.3976 22.9291L24.868 14.1343L27.0927 12.9773L29.8506 7.11065L35.8994 8.08842L48.1817 14.9277L61.9761 18.7518C58.4237 9.69075 48.3662 1.95556 36.1762 1.95556" fill="#001F45"/>
<path d="M12.8247 69.7338H10.0771V70.3788H10.3027C10.5641 70.3788 10.7487 70.4863 10.846 70.6962C10.9076 70.8344 10.9383 71.5051 10.9383 72.7081V76.1892C10.9383 76.5527 10.8922 76.7933 10.7948 76.9161C10.6718 77.0595 10.436 77.126 10.0925 77.126H9.93359V77.7761H14.3369V77.126H14.0601C13.6449 77.126 13.3835 77.0697 13.2707 76.9622C13.1631 76.8496 13.1067 76.5936 13.1067 76.1841V74.5817C13.1067 73.9981 13.1784 73.3378 13.322 72.5955C13.4963 71.6894 13.7372 71.0443 14.0345 70.6655C14.0191 70.7372 14.0038 70.7935 13.9986 70.8344C13.9884 71.1006 14.0806 71.3157 14.2703 71.4795C14.46 71.6433 14.6907 71.7252 14.9675 71.7252C15.2648 71.7252 15.5211 71.6126 15.721 71.3873C15.9261 71.1621 16.0286 70.8959 16.0286 70.5836C16.0286 69.872 15.6287 69.5137 14.8342 69.5137C13.8448 69.5137 13.1989 70.1126 12.8965 71.3003L12.8299 69.7236" fill="#001F45"/>
<path d="M29.6943 69.52C29.2432 69.52 28.8126 69.6275 28.4076 69.8374C27.977 70.0575 27.6592 70.3647 27.4695 70.7486L27.4439 69.7299H24.5527V70.3749H24.7527C25.1217 70.3749 25.3524 70.5131 25.4447 70.7845C25.4857 70.9022 25.5113 71.2145 25.5113 71.7264V75.7501C25.5113 76.4105 25.4549 76.7996 25.3524 76.9122C25.2191 77.0556 25.0551 77.1221 24.8501 77.1221H24.5579V77.7722H28.7357V77.1221H28.4435C28.1667 77.1221 27.9667 77.0504 27.8335 76.9122C27.7617 76.8354 27.7309 76.4515 27.7309 75.7706V72.7247C27.7309 71.9414 27.8078 71.4141 27.9719 71.1479C28.1974 70.7691 28.505 70.5797 28.8843 70.5797C29.5046 70.5797 29.8122 70.979 29.8122 71.7725V77.7722H33.0211V77.1221H32.7699C32.4316 77.1221 32.2214 77.0402 32.1189 76.8713C32.0677 76.7638 32.042 76.4105 32.042 75.8116V72.7656C32.042 71.3117 32.4316 70.5797 33.2108 70.5797C33.8464 70.5797 34.1694 70.979 34.1694 71.7725V77.7722H37.363V77.1221H37.1477C36.6709 77.1221 36.4198 76.9276 36.389 76.5385C36.3787 76.4412 36.3787 76.1955 36.3787 75.7962V72.1155C36.3787 70.38 35.5893 69.5098 34.0053 69.5098C33.0416 69.5098 32.3035 69.8988 31.7908 70.6718C31.4269 69.8937 30.7349 69.5098 29.7096 69.5098" fill="#001F45"/>
<path d="M47.9134 69.7343H45.1452V70.3793H45.3964C45.6579 70.3793 45.8424 70.4868 45.9398 70.6967C46.0013 70.8349 46.0321 71.5055 46.0321 72.7086V76.1897C46.0321 76.5531 45.9859 76.7937 45.8885 76.9166C45.7655 77.0599 45.5297 77.1265 45.1863 77.1265H45.0273V77.7766H49.4307V77.1265H49.1488C48.7335 77.1265 48.4721 77.0702 48.3593 76.9627C48.2517 76.85 48.1953 76.5941 48.1953 76.1845V74.5822C48.1953 73.9884 48.2671 73.3229 48.4055 72.5806C48.5849 71.6745 48.8207 71.0294 49.1231 70.6609C49.1026 70.7325 49.0924 70.7888 49.0872 70.8298C49.077 71.0858 49.1641 71.2956 49.3589 71.4646C49.5486 71.6335 49.7844 71.7154 50.0561 71.7154C50.3534 71.7154 50.6046 71.6028 50.8148 71.3775C51.0198 71.1523 51.1172 70.8861 51.1172 70.5738C51.1172 69.8623 50.7174 69.5039 49.9228 69.5039C48.9335 69.5039 48.2876 70.0977 47.9851 71.2803L47.9185 69.7189" fill="#001F45"/>
<path d="M52.6501 68.4497C52.9064 68.7159 53.214 68.8439 53.583 68.8439C53.9521 68.8439 54.2546 68.7108 54.516 68.4497C54.7774 68.1835 54.9056 67.8713 54.9056 67.5078C54.9056 67.1443 54.7723 66.8269 54.516 66.5761C54.2546 66.3252 53.9419 66.1973 53.583 66.1973C53.2242 66.1973 52.8961 66.3252 52.645 66.5761C52.3938 66.8269 52.2656 67.1392 52.2656 67.5078C52.2656 67.8764 52.3938 68.1835 52.6501 68.4497Z" fill="#001F45"/>
<path d="M51.6672 77.7829H55.6708V77.1327H55.4862C55.1889 77.1327 54.9787 77.0662 54.8762 76.9331C54.7942 76.8256 54.7583 76.4416 54.7583 75.7659V69.7559H51.6672V70.406H51.8774C52.2055 70.406 52.4157 70.5237 52.5028 70.7644C52.5489 70.877 52.5694 71.1432 52.5694 71.5578V75.7812C52.5694 76.3443 52.5438 76.6976 52.4874 76.8256C52.4054 77.0303 52.2055 77.1276 51.8723 77.1276H51.6621V77.7777" fill="#001F45"/>
<path d="M60.8181 70.528C60.5002 70.528 60.2388 70.6253 60.0389 70.8198C59.8338 71.0144 59.7365 71.2703 59.7365 71.5877C59.7365 71.9205 59.8749 72.1918 60.1465 72.3966C60.3875 72.5655 60.6797 72.6474 61.0334 72.6474C61.3871 72.6474 61.6844 72.5245 61.9458 72.2788C62.2124 72.0331 62.3457 71.7362 62.3457 71.3881C62.3457 70.743 62.0637 70.2567 61.5101 69.9188C61.0487 69.6526 60.4695 69.5195 59.7723 69.5195C58.5677 69.5195 57.6091 69.9291 56.8966 70.7533C56.225 71.5365 55.8867 72.5399 55.8867 73.7583C55.8867 75.0483 56.1738 76.0619 56.7479 76.8042C57.3938 77.6233 58.3421 78.038 59.598 78.038C60.5976 78.038 61.3819 77.6796 61.9561 76.9629C62.4225 76.3742 62.6635 75.7036 62.6737 74.9511H61.8382C61.8279 75.55 61.669 76.0671 61.3614 76.5022C60.9975 76.9885 60.531 77.2291 59.9569 77.2291C59.2136 77.2291 58.7215 76.7991 58.4703 75.934C58.3473 75.4835 58.2858 74.7565 58.2858 73.7634C58.2858 71.4085 58.947 70.226 60.2644 70.226C60.7053 70.226 61.0385 70.3591 61.2589 70.6253C61.1564 70.5639 61.0077 70.5331 60.8232 70.5331" fill="#001F45"/>
<path fill-rule="evenodd" clip-rule="evenodd" d="M39.9984 75.3204C40.2239 76.5746 40.7827 77.2043 41.6695 77.2043C42.2436 77.2043 42.7562 76.9739 43.2022 76.5132C43.6482 76.0524 43.8737 75.5303 43.884 74.9518H44.6888C44.6683 75.6685 44.371 76.3391 43.7866 76.9637C43.1202 77.6804 42.3103 78.0387 41.3466 78.0387C40.0907 78.0387 39.1269 77.6292 38.4452 76.805C37.8198 76.0473 37.502 75.0337 37.502 73.759C37.502 72.5765 37.83 71.5884 38.481 70.795C39.1885 69.9452 40.1214 69.5254 41.2799 69.5254C42.4384 69.5254 43.356 69.9196 43.9558 70.7028C44.494 71.399 44.7708 72.3615 44.7811 73.5747H39.86C39.86 74.2965 39.9112 74.8801 39.9984 75.3204ZM39.9061 72.1823C39.8856 72.3615 39.8702 72.5969 39.86 72.899H42.541C42.541 71.056 42.1104 70.1295 41.2543 70.1295C40.4649 70.1295 40.0138 70.8154 39.901 72.1823" fill="#001F45"/>
<path fill-rule="evenodd" clip-rule="evenodd" d="M5.05399 66.8054H4.32608V72.0629H5.05399C6.45856 72.0629 7.16084 71.2079 7.16084 69.493C7.16084 67.778 6.45856 66.8054 5.05399 66.8054ZM4.26969 72.8052V76.1378C4.26969 76.5371 4.34659 76.7982 4.50037 76.9313C4.65415 77.0644 4.93609 77.1309 5.34106 77.1309H5.89981V77.7811H0.666016V77.1309H0.865935C1.28115 77.1309 1.56309 77.0695 1.722 76.9415C1.87579 76.8135 1.95268 76.5473 1.95268 76.1378V67.8651C1.95268 67.3276 1.84503 66.9999 1.63486 66.8873C1.51183 66.8105 1.18888 66.7695 0.666016 66.7695V66.1348H5.06937C6.34066 66.1348 7.36588 66.3702 8.14506 66.8361C9.08827 67.4095 9.55987 68.29 9.55987 69.4828C9.55987 70.6755 9.07289 71.5305 8.10405 72.1038C7.31975 72.5697 6.29452 72.8052 5.04374 72.8052H4.27482H4.26969Z" fill="#001F45"/>
<path fill-rule="evenodd" clip-rule="evenodd" d="M67.4539 76.2206C67.659 75.8674 67.7461 75.3606 67.7461 74.6951V73.5023C66.9875 73.6559 66.4543 73.8504 66.157 74.1013C65.7572 74.4187 65.5573 74.9306 65.5573 75.637C65.5573 76.4971 65.8494 76.922 66.4338 76.922C66.849 76.922 67.1976 76.6865 67.4488 76.2206M66.7978 69.5195C68.9097 69.5195 69.9555 70.4512 69.9555 72.3146V76.1797C69.9555 76.8145 70.1862 77.1319 70.6475 77.1319H70.8731V77.782H67.864V76.6814C67.6538 77.0807 67.336 77.4032 66.9208 77.654C66.5056 77.9049 66.075 78.0328 65.6239 78.0328C64.9421 78.0328 64.3885 77.8537 63.9682 77.4902C63.5119 77.1011 63.2812 76.5841 63.2812 75.9288C63.2812 75.0534 63.7067 74.3675 64.5525 73.876C65.1984 73.4972 66.2647 73.1593 67.7461 72.8675V71.5979C67.7461 70.6816 67.2438 70.2209 66.2339 70.2209C65.952 70.2209 65.6598 70.2823 65.3625 70.4052C65.1267 70.4973 64.9472 70.6099 64.8293 70.7379C64.9729 70.6918 65.0293 70.6816 65.1523 70.6816C65.8341 70.6816 66.1724 71.0041 66.1724 71.6491C66.1724 71.9512 66.0545 72.1969 65.8084 72.3914C65.5624 72.586 65.2907 72.6832 64.9831 72.6832C64.6294 72.6832 64.3372 72.5655 64.1168 72.33C63.8913 72.0945 63.7785 71.8027 63.7785 71.4495C63.7785 70.7891 64.1373 70.2823 64.8498 69.9291C65.4137 69.6578 66.075 69.5195 66.808 69.5195" fill="#001F45"/>
<path fill-rule="evenodd" clip-rule="evenodd" d="M20.5704 76.2206C20.7754 75.8674 20.8626 75.3606 20.8626 74.6951V73.5023C20.1039 73.6559 19.5708 73.8504 19.2735 74.1013C18.8736 74.4187 18.6737 74.9306 18.6737 75.637C18.6737 76.4971 18.9659 76.922 19.5503 76.922C19.9655 76.922 20.3141 76.6865 20.5653 76.2206M19.9194 69.5195C22.0313 69.5195 23.0771 70.4512 23.0771 72.3146V76.1797C23.0771 76.8145 23.3077 77.1319 23.764 77.1319H23.9895V77.782H20.9805V76.6814C20.7703 77.0807 20.4525 77.4032 20.0373 77.654C19.622 77.9049 19.1863 78.0328 18.7352 78.0328C18.0534 78.0328 17.505 77.8537 17.0795 77.4902C16.6181 77.1011 16.3926 76.5841 16.3926 75.9288C16.3926 75.0534 16.818 74.3675 17.6639 73.876C18.3098 73.4972 19.376 73.1593 20.8574 72.8675V71.5979C20.8574 70.6816 20.3551 70.2209 19.3452 70.2209C19.0633 70.2209 18.7762 70.2823 18.4738 70.4052C18.238 70.4973 18.0586 70.6099 17.9407 70.7379C18.0842 70.6918 18.1406 70.6816 18.2636 70.6816C18.9454 70.6816 19.2837 71.0041 19.2837 71.6491C19.2837 71.9512 19.1658 72.1969 18.9198 72.3914C18.6788 72.586 18.402 72.6832 18.0945 72.6832C17.7408 72.6832 17.4486 72.5655 17.223 72.33C16.9975 72.0945 16.8847 71.8027 16.8847 71.4495C16.8847 70.7891 17.2435 70.2823 17.9561 69.9291C18.5199 69.6578 19.1812 69.5195 19.9142 69.5195" fill="#001F45"/>
<path d="M6.47852 87.9221V82.5469H7.50374V87.0569H9.84639V87.9221H6.47852Z" fill="#001F45"/>
<path d="M11.796 82.5488H10.7656V87.924H11.796V82.5488Z" fill="#001F45"/>
<path d="M13.1055 87.9221V82.5469H16.54V83.412H14.1358V84.6918H15.9351V85.557H14.1358V87.9221H13.1055Z" fill="#001F45"/>
<path d="M17.3008 87.924V82.5488H20.8634V83.414H18.3311V84.6938H20.1714V85.559H18.3311V87.0589H20.9455V87.924H17.3008Z" fill="#001F45"/>
<path d="M25.2608 82.5488H24.2305V87.924H25.2608V82.5488Z" fill="#001F45"/>
<path d="M26.5938 87.9221V82.5469H27.6702L29.7873 86.2123H29.8027V82.5469H30.7716V87.9221H29.7771L27.578 84.0929H27.5626V87.9221H26.5938Z" fill="#001F45"/>
<path d="M34.4991 83.9758C34.417 83.7659 34.2991 83.5969 34.1402 83.469C33.9813 83.341 33.7763 83.2744 33.5353 83.2744C33.3098 83.2744 33.1304 83.3205 32.9817 83.4178C32.8382 83.5099 32.7664 83.6635 32.7664 83.8734C32.7664 84.027 32.8331 84.1549 32.9715 84.2573C33.1099 84.3597 33.279 84.457 33.4841 84.5389C33.6891 84.6259 33.9147 84.7129 34.1505 84.8051C34.3914 84.8972 34.6118 85.0047 34.8169 85.1378C35.0219 85.2709 35.1962 85.4347 35.3346 85.6242C35.473 85.8187 35.5397 86.0593 35.5397 86.346C35.5397 86.904 35.3756 87.3186 35.0476 87.59C34.7195 87.8613 34.253 87.9995 33.6532 87.9995C33.4328 87.9995 33.2227 87.9688 33.0125 87.9125C32.8023 87.851 32.6075 87.7691 32.4332 87.6565C32.2538 87.549 32.0949 87.4159 31.9565 87.2572C31.8181 87.0985 31.7156 86.9193 31.6387 86.7299L32.4896 86.3562C32.6126 86.6071 32.7664 86.8118 32.9407 86.9654C33.115 87.119 33.3559 87.1958 33.6584 87.1958C33.7865 87.1958 33.9096 87.1855 34.0172 87.1599C34.1249 87.1343 34.2222 87.0934 34.3043 87.0371C34.3863 86.9808 34.4529 86.904 34.4991 86.8118C34.5452 86.7197 34.5708 86.6122 34.5708 86.4791C34.5708 86.305 34.5042 86.1617 34.3658 86.0439C34.2274 85.9262 34.0582 85.8238 33.8532 85.7265C33.643 85.6344 33.4226 85.5423 33.1868 85.4501C32.9458 85.3631 32.7254 85.2505 32.5204 85.1276C32.3153 84.9996 32.141 84.846 32.0026 84.6669C31.8642 84.4877 31.7976 84.2573 31.7976 83.9758C31.7976 83.7403 31.8437 83.5253 31.9411 83.3359C32.0334 83.1464 32.1615 82.9877 32.3204 82.8649C32.4794 82.7369 32.6639 82.6396 32.8741 82.5731C33.0842 82.5065 33.3047 82.4707 33.5353 82.4707C33.9659 82.4707 34.3555 82.5731 34.6939 82.783C35.0322 82.9929 35.2834 83.2898 35.4423 83.684L34.5042 83.9758H34.4991Z" fill="#001F45"/>
<path d="M39.6584 82.5488H40.6888V85.9173C40.6888 86.3064 40.6324 86.6391 40.5196 86.9053C40.4069 87.1715 40.2582 87.3865 40.0634 87.5503C39.8737 87.7142 39.6533 87.8319 39.4021 87.8984C39.151 87.9701 38.8895 88.006 38.6178 88.006C38.3462 88.006 38.0847 87.9701 37.8335 87.8984C37.5824 87.8319 37.3671 87.7142 37.1723 87.5503C36.9775 87.3865 36.8288 87.1715 36.716 86.9053C36.6033 86.6391 36.5469 86.3115 36.5469 85.9173V82.5488H37.5772V85.9583C37.5772 86.3934 37.6644 86.7005 37.8335 86.8746C38.0078 87.0487 38.2641 87.1357 38.6127 87.1357C38.9613 87.1357 39.2227 87.0487 39.3919 86.8746C39.561 86.7005 39.6482 86.3934 39.6482 85.9583V82.5488H39.6584Z" fill="#001F45"/>
<path d="M41.8997 87.9221V82.5469H44.0475C44.35 82.5469 44.6114 82.5878 44.8318 82.6697C45.0522 82.7516 45.2265 82.8643 45.3649 83.0076C45.5033 83.1509 45.6059 83.3199 45.6725 83.5144C45.7391 83.7089 45.775 83.9188 45.775 84.139C45.775 84.4717 45.6981 84.7635 45.529 85.0092C45.3649 85.255 45.1137 85.429 44.7857 85.5263L45.9698 87.9221H44.8267L43.8117 85.7311H42.9249V87.9221H41.8945H41.8997ZM42.93 84.8966H43.6887C44.0936 84.8966 44.3653 84.8352 44.5191 84.7072C44.6678 84.5792 44.7395 84.3898 44.7395 84.139C44.7395 83.8881 44.6678 83.6936 44.5191 83.5707C44.3705 83.4427 44.1552 83.3813 43.8681 83.3813H42.93V84.9017V84.8966Z" fill="#001F45"/>
<path d="M47.9387 82.5371H49.2203L50.7478 87.9226H49.7277L49.4304 86.7605H47.7285L47.4107 87.9226H46.3906L47.9438 82.5371H47.9387ZM47.9541 85.9107H49.21L48.6051 83.5712H48.5897L47.9541 85.9107Z" fill="#001F45"/>
<path d="M51.4551 87.924V82.5488H52.5264L54.6487 86.2142H54.664V82.5488H55.6329V87.924H54.6384L52.4393 84.0948H52.4239V87.924H51.4551Z" fill="#001F45"/>
<path d="M59.5725 84.1077C59.5007 83.8773 59.3777 83.693 59.2188 83.5497C59.0548 83.4063 58.8497 83.3346 58.5985 83.3346C58.2551 83.3346 57.9834 83.4933 57.7886 83.8056C57.5938 84.123 57.4913 84.594 57.4913 85.2339C57.4759 86.4983 57.8552 87.1331 58.6242 87.1331C58.7369 87.1331 58.8446 87.1178 58.942 87.0973C59.0394 87.0717 59.1265 87.0307 59.2137 86.9693C59.2957 86.913 59.3777 86.8311 59.4495 86.7287C59.5264 86.6263 59.6033 86.4932 59.675 86.3345L60.6285 86.5905C60.4696 87.0563 60.2184 87.4096 59.8801 87.6451C59.5366 87.8805 59.1214 87.9983 58.6242 87.9983C57.9321 87.9983 57.399 87.7577 57.0248 87.2816C56.6506 86.8004 56.4609 86.1195 56.4609 85.239C56.4609 84.3585 56.6506 83.6725 57.0248 83.1913C57.399 82.7101 57.9321 82.4746 58.6242 82.4746C59.1419 82.4746 59.552 82.5923 59.8544 82.8227C60.1569 83.0531 60.3773 83.4114 60.5055 83.8926L59.5725 84.1179V84.1077Z" fill="#001F45"/>
<path d="M61.4199 87.924V82.5488H64.9826V83.414H62.4503V84.6938H64.2906V85.559H62.4503V87.0589H65.0697V87.924H61.4199Z" fill="#001F45"/>
</g>
</g>
<defs>
<clipPath id="clip0_30_2948">
<rect width="70.2128" height="88" fill="white" transform="translate(0.666016)"/>
</clipPath>
</defs>
</svg>
