<svg width="14" height="14" viewBox="0 0 14 14" fill="none" xmlns="http://www.w3.org/2000/svg">
<path d="M11.5311 5.42597C11.2975 5.21468 10.9381 5.21468 10.7044 5.42597L7.59547 8.23728V0.890759C7.59547 0.598308 7.32595 0.354492 7.00243 0.354492C6.67901 0.354492 6.40939 0.598203 6.40939 0.890759V8.23728L3.31839 5.42597C3.08473 5.21468 2.72535 5.21468 2.49166 5.42597C2.25798 5.63726 2.258 5.96224 2.49166 6.17355L6.607 9.89492C6.66091 9.94366 6.73286 9.9762 6.80469 10.0087C6.85872 10.0411 6.93067 10.0411 7.0025 10.0411C7.07433 10.0411 7.14628 10.0249 7.21811 9.99241C7.28994 9.95987 7.3619 9.92745 7.4158 9.8786L11.5311 6.15723C11.7469 5.97847 11.7467 5.63725 11.5311 5.42597Z" fill="#0066CC" stroke="#0066CC" stroke-width="0.5"/>
<path d="M12.8688 13.501H1.13051C0.793054 13.501 0.511719 13.2573 0.511719 12.9648V9.51967C0.511719 9.22721 0.792933 8.9834 1.13051 8.9834C1.46796 8.9834 1.7493 9.22711 1.7493 9.51967V12.4448H12.25V9.51967C12.25 9.22721 12.5312 8.9834 12.8688 8.9834C13.2062 8.9834 13.4875 9.22711 13.4875 9.51967V12.9648C13.4687 13.2573 13.2062 13.501 12.8688 13.501Z" fill="#0066CC" stroke="#0066CC" stroke-width="0.5"/>
</svg>
