<svg width="32" height="32" viewBox="0 0 32 32" fill="none" xmlns="http://www.w3.org/2000/svg">
<path d="M13.6735 15.3438C13.5068 15.7086 13.3672 16.6301 12.1421 16.8751C10.6108 17.1814 8.47352 18.2066 8.34579 20.3779L8.25 23.2996C8.2494 23.8118 8.51502 24.6598 10.7246 24.5449H16.3923" stroke="#111111" stroke-width="0.8"/>
<path d="M18.2777 15.3438C18.4444 15.7086 18.584 16.6301 19.809 16.8751C21.3404 17.1814 23.4777 18.2066 23.6054 20.3779L23.7012 23.2996C23.7018 23.8118 23.4361 24.6598 21.2265 24.5449H15.5589" stroke="#111111" stroke-width="0.8"/>
<path d="M12.2812 11.7294C12.2812 14.0975 13.9267 16.0171 15.9565 16.0171C17.9862 16.0171 19.6317 14.0975 19.6317 11.7294C19.6317 11.2474 19.5635 10.784 19.4378 10.3516" stroke="#111111" stroke-width="0.8"/>
<path d="M17.2346 7.6906C15.5195 6.95556 13.7481 8.0447 13.3524 8.70027C13.3524 8.70027 12.5788 8.84235 12.3785 10.158C12.1582 11.6045 12.334 12.4718 12.334 12.4718C12.334 12.4718 13.7417 10.2006 14.3219 10.5518C14.6429 10.7461 17.2346 11.3997 17.2346 11.3997C19.1015 11.6411 20.0931 9.52812 19.991 8.30305C19.5347 8.30305 18.9497 8.42564 17.2346 7.6906Z" stroke="#111111" stroke-width="0.8"/>
<path d="M11.8965 17.1685C13.62 18.7129 18.2701 18.9084 20.0144 17.1641" stroke="#111111" stroke-width="0.8" stroke-linecap="round" stroke-linejoin="round"/>
<path d="M23.9922 14.9688C23.875 15.2254 23.7768 15.8735 22.9151 16.0458C22.2015 16.1885 21.3008 16.5532 20.748 17.2273M23.59 21.4403H25.9045" stroke="#111111" stroke-width="0.8"/>
<path d="M27.2322 14.9688C27.3495 15.2254 27.4477 15.8735 28.3093 16.0458C29.3864 16.2612 30.8897 16.9824 30.9795 18.5096L31.0469 20.5645C31.0473 20.9248 30.8605 21.5213 29.3063 21.4404H25.3199" stroke="#111111" stroke-width="0.8"/>
<path d="M23.0117 12.4222C23.0117 14.0878 24.1691 15.438 25.5967 15.438C27.0243 15.438 28.1817 14.0878 28.1817 12.4222C28.1817 12.0832 28.1337 11.7573 28.0453 11.4531" stroke="#111111" stroke-width="0.8"/>
<path d="M26.4975 9.58659C25.2912 9.06959 24.0452 9.83564 23.7669 10.2967C23.7669 10.2967 23.2228 10.3967 23.0819 11.3221C22.927 12.3395 23.0507 12.9495 23.0507 12.9495C23.0507 12.9495 24.0407 11.352 24.4488 11.599C24.6746 11.7357 26.4975 12.1954 26.4975 12.1954C27.8106 12.3652 28.508 10.879 28.4362 10.0174C28.1153 10.0174 27.7038 10.1036 26.4975 9.58659Z" stroke="#111111" stroke-width="0.8"/>
<path d="M22.7422 16.2531C23.9544 17.3394 27.2251 17.4769 28.452 16.25" stroke="#111111" stroke-width="0.8" stroke-linecap="round" stroke-linejoin="round"/>
<path d="M4.76581 14.9688C4.64857 15.2254 4.55039 15.8735 3.68873 16.0458C2.61166 16.2612 1.10838 16.9824 1.01855 18.5096L0.951172 20.5645C0.950753 20.9248 1.13758 21.5213 2.69171 21.4404H6.67812" stroke="#111111" stroke-width="0.8"/>
<path d="M8.00474 14.9688C8.12198 15.2254 8.22016 15.8735 9.08182 16.0458C9.79088 16.1876 10.6847 16.5486 11.2383 17.2145M8.5254 21.4403H6.09243" stroke="#111111" stroke-width="0.8"/>
<path d="M3.78516 12.4222C3.78516 14.0878 4.94249 15.438 6.37014 15.438C7.79778 15.438 8.95511 14.0878 8.95511 12.4222C8.95511 12.0832 8.90717 11.7573 8.81876 11.4531" stroke="#111111" stroke-width="0.8"/>
<path d="M7.27092 9.58659C6.0646 9.06959 4.81867 9.83564 4.54037 10.2967C4.54037 10.2967 3.99625 10.3967 3.85535 11.3221C3.70044 12.3395 3.82409 12.9495 3.82409 12.9495C3.82409 12.9495 4.81415 11.352 5.22227 11.599C5.44806 11.7357 7.27092 12.1954 7.27092 12.1954C8.584 12.3652 9.28146 10.879 9.20966 10.0174C8.8887 10.0174 8.47724 10.1036 7.27092 9.58659Z" stroke="#111111" stroke-width="0.8"/>
<path d="M3.51562 16.2531C4.72787 17.3394 7.99857 17.4769 9.22543 16.25" stroke="#111111" stroke-width="0.8" stroke-linecap="round" stroke-linejoin="round"/>
</svg>
