<svg width="32" height="32" viewBox="0 0 32 32" fill="none" xmlns="http://www.w3.org/2000/svg">
<circle cx="16.0351" cy="9.41796" r="6.52734" stroke="#111111" stroke-width="0.8"/>
<path d="M17.9625 13.6943L13.9088 10.4356C13.8353 10.3764 13.8795 10.2556 13.9738 10.2513C17.9591 10.0709 17.8445 6.12448 14.1101 6.125" stroke="#111111" stroke-width="0.8" stroke-linecap="round"/>
<path d="M14.3125 8.35156H18.2697" stroke="#111111" stroke-width="0.8" stroke-linecap="round"/>
<path d="M13.2402 6.125H18.8343" stroke="#111111" stroke-width="0.8" stroke-linecap="round"/>
<path d="M5.68697 16.0034C6.59301 14.8927 8.06167 15.7843 8.68275 16.3689C9.47188 17.2457 11.5446 18.0981 12.4823 18.4148C14.2359 19.3793 14.446 22.3769 14.3319 23.7551L8.50008 23.7551L4.22562 19.3648C3.3179 17.5784 1.68554 14.422 1.50247 13.3293C1.34747 12.4041 2.79719 11.0838 4.03394 13.1553C4.89218 14.5929 6.10985 17.8511 8.68275 19.7835L9.5673 20.4301" stroke="#111111" stroke-width="0.8" stroke-linecap="round" stroke-linejoin="round"/>
<path d="M26.313 16.0034C25.407 14.8927 23.9383 15.7843 23.3173 16.3689C22.5281 17.2457 20.4554 18.0981 19.5177 18.4148C17.7641 19.3793 17.554 22.3769 17.6681 23.7551L23.4999 23.7551L27.7744 19.3648C28.6821 17.5784 30.3145 14.422 30.4975 13.3293C30.6525 12.4041 29.2028 11.0838 27.9661 13.1553C27.1078 14.5929 25.8902 17.8511 23.3173 19.7835L22.4327 20.4301" stroke="#111111" stroke-width="0.8" stroke-linecap="round" stroke-linejoin="round"/>
<path d="M7.96416 23.7578L14.4648 23.7578C14.741 23.7578 14.9648 23.9817 14.9648 24.2578L14.9648 28.6154C14.9648 28.8916 14.741 29.1154 14.4648 29.1154L7.96416 29.1154C7.68802 29.1154 7.46416 28.8916 7.46416 28.6154L7.46416 24.2578C7.46416 23.9817 7.68802 23.7578 7.96416 23.7578Z" stroke="#111111" stroke-width="0.8" stroke-linejoin="round"/>
<path d="M24.0358 23.7578L17.5352 23.7578C17.259 23.7578 17.0352 23.9817 17.0352 24.2578L17.0352 28.6154C17.0352 28.8916 17.259 29.1154 17.5352 29.1154L24.0358 29.1154C24.312 29.1154 24.5358 28.8916 24.5358 28.6154L24.5358 24.2578C24.5358 23.9817 24.312 23.7578 24.0358 23.7578Z" stroke="#111111" stroke-width="0.8" stroke-linejoin="round"/>
<path d="M13.2461 26.5391L12.084 26.5391" stroke="#111111" stroke-width="0.8" stroke-linecap="round"/>
<path d="M18.7539 26.5391L19.916 26.5391" stroke="#111111" stroke-width="0.8" stroke-linecap="round"/>
</svg>
