<svg width="20" height="20" viewBox="0 0 20 20" fill="none" xmlns="http://www.w3.org/2000/svg">
<rect width="20" height="20" rx="10" fill="white"/>
<path fill-rule="evenodd" clip-rule="evenodd" d="M9.19584 7.77692C9.05328 7.78627 8.93007 7.67837 8.92055 7.53579C8.91103 7.39311 9.01898 7.26973 9.16166 7.26021L9.17889 7.51846C9.16166 7.26021 9.1615 7.26022 9.16166 7.26021L9.16234 7.26017L9.16316 7.26012L9.16515 7.26L9.17064 7.25972C9.17494 7.25952 9.18053 7.2593 9.18733 7.25912C9.20092 7.25878 9.21938 7.2586 9.24204 7.25909C9.28724 7.26006 9.34976 7.26367 9.42395 7.27399C9.57124 7.29447 9.77123 7.3423 9.97383 7.45384C10.1787 7.56661 10.3836 7.74329 10.5355 8.01453C10.6869 8.28471 10.7779 8.63477 10.7779 9.08355C10.7779 9.52277 10.6071 9.84998 10.3436 10.0782C10.0898 10.2979 9.76547 10.4131 9.46773 10.4746C9.29607 10.5101 9.12588 10.5292 8.9709 10.5385L10.8113 12.2952C10.9147 12.394 10.9185 12.5579 10.8198 12.6613C10.7211 12.7648 10.5572 12.7686 10.4537 12.6698L8.13288 10.4545C8.05214 10.3774 8.02988 10.2572 8.07766 10.1564C8.12541 10.0555 8.2324 9.99661 8.34314 10.0102C8.3431 10.0102 8.34319 10.0102 8.34314 10.0102L8.34692 10.0106L8.36249 10.0123C8.37667 10.0137 8.39823 10.0157 8.42612 10.0178C8.48196 10.0221 8.56272 10.0267 8.65997 10.028C8.85604 10.0306 9.11176 10.0194 9.36296 9.96751C9.61707 9.91501 9.84456 9.82528 10.0046 9.68667C10.155 9.55649 10.2601 9.37194 10.2601 9.08355C10.2601 8.70513 10.1837 8.44597 10.0837 8.26761C9.98442 8.09032 9.85429 7.97915 9.72409 7.90747C9.59167 7.83456 9.45662 7.80135 9.35264 7.78689C9.30119 7.77974 9.25901 7.77741 9.23092 7.77681C9.21693 7.77651 9.20661 7.77664 9.20056 7.77679L9.19485 7.77699C9.19446 7.777 9.19464 7.777 9.19485 7.77699L9.19584 7.77692ZM8.34314 10.0102C8.3431 10.0102 8.34319 10.0102 8.34314 10.0102V10.0102Z" fill="#111111"/>
<path fill-rule="evenodd" clip-rule="evenodd" d="M7.81445 7.51771C7.81445 7.37471 7.93037 7.25879 8.07337 7.25879H11.7198C11.8628 7.25879 11.9787 7.37471 11.9787 7.51771C11.9787 7.6607 11.8628 7.77662 11.7198 7.77662H8.07337C7.93037 7.77662 7.81445 7.6607 7.81445 7.51771Z" fill="#111111"/>
<path fill-rule="evenodd" clip-rule="evenodd" d="M8.5625 8.84388C8.5625 8.70088 8.67842 8.58496 8.82142 8.58496H11.5957C11.7387 8.58496 11.8546 8.70088 11.8546 8.84388C11.8546 8.98688 11.7387 9.1028 11.5957 9.1028H8.82142C8.67842 9.1028 8.5625 8.98688 8.5625 8.84388Z" fill="#111111"/>
<path d="M13.4993 13.4988C11.5677 15.4304 8.43232 15.4304 6.50072 13.4988C4.56912 11.5672 4.56912 8.43186 6.50072 6.50026C8.43232 4.56865 11.5677 4.56865 13.4993 6.50026" stroke="#111111" stroke-width="0.647834" stroke-linecap="round" stroke-linejoin="round"/>
<path d="M5.22061 8.71976C5.92763 6.08115 8.64293 4.51347 11.2815 5.22048C13.9202 5.9275 15.4878 8.6428 14.7808 11.2814C14.0738 13.92 11.3585 15.4877 8.71989 14.7807" stroke="#111111" stroke-width="0.647834" stroke-linecap="round" stroke-linejoin="round"/>
</svg>
