<svg width="20" height="20" viewBox="0 0 20 20" fill="none" xmlns="http://www.w3.org/2000/svg">
<rect width="20" height="20" rx="10" fill="white"/>
<path d="M9.532 4.08455C9.79508 3.98611 10.0825 3.97328 10.3533 4.04788L10.468 4.08455L15.1347 5.83455C15.3713 5.92327 15.5778 6.07742 15.7302 6.27901C15.8826 6.48061 15.9745 6.72136 15.9953 6.97321L16 7.08321V10.6585C16 11.7388 15.7083 12.7991 15.1557 13.7273C14.6032 14.6556 13.8103 15.4175 12.8607 15.9325L12.6833 16.0252L10.4473 17.1432C10.3242 17.2047 10.1897 17.2401 10.0523 17.2472C9.91489 17.2543 9.77747 17.233 9.64867 17.1845L9.55267 17.1432L7.31667 16.0252C6.35041 15.5421 5.53252 14.807 4.94934 13.8976C4.36616 12.9882 4.03932 11.9383 4.00333 10.8585L4 10.6585V7.08321C4 6.83063 4.07175 6.58325 4.20689 6.36986C4.34203 6.15647 4.535 5.98586 4.76333 5.87788L4.86533 5.83455L9.532 4.08455ZM10 5.33321L5.33333 7.08321V10.6585C5.33335 11.4952 5.5583 12.3165 5.98464 13.0364C6.41097 13.7563 7.02301 14.3483 7.75667 14.7505L7.91333 14.8325L10 15.8759L12.0867 14.8325C12.8352 14.4584 13.4693 13.8898 13.9226 13.1865C14.3759 12.4831 14.6317 11.6707 14.6633 10.8345L14.6667 10.6585V7.08321L10 5.33321ZM12.2887 8.37388C12.4086 8.25431 12.5696 8.1849 12.7389 8.17973C12.9082 8.17456 13.0731 8.23402 13.2002 8.34605C13.3272 8.45807 13.4069 8.61425 13.4229 8.78286C13.439 8.95148 13.3903 9.11988 13.2867 9.25388L13.2313 9.31655L9.742 12.8065C9.6149 12.9336 9.44555 13.0096 9.26611 13.0201C9.08668 13.0305 8.90966 12.9747 8.76867 12.8632L8.70467 12.8065L7.102 11.2039C6.98116 11.0842 6.91065 10.9228 6.90488 10.7528C6.89911 10.5829 6.95853 10.4171 7.07098 10.2895C7.18342 10.1619 7.34039 10.0821 7.50975 10.0664C7.67911 10.0507 7.84805 10.1004 7.982 10.2052L8.04467 10.2605L9.22333 11.4392L12.2887 8.37388Z" fill="#111111" stroke="white" stroke-width="0.8"/>
</svg>
