<svg width="24" height="30" viewBox="0 0 24 30" fill="none" xmlns="http://www.w3.org/2000/svg">
<g clip-path="url(#clip0_789_6377)">
<path d="M14.3658 19.2C13.9237 18.8212 13.4816 18.3474 12.9763 17.8423C12.6289 17.4634 12.25 16.9266 11.9342 16.3581C12.5342 14.3056 12.8184 12.3475 12.1868 11.4001C11.9027 10.958 11.4606 10.7368 10.892 10.7368C10.2605 10.7368 9.78667 11.021 9.56573 11.5578C9.06042 12.6946 9.81839 14.7789 10.7341 16.484C10.4814 17.305 10.1658 18.1892 9.78667 19.1684C9.56551 19.7052 9.31308 20.242 9.06041 20.7473C6.47084 21.7579 4.8919 22.8945 4.67096 23.9684C4.57624 24.4737 4.73418 24.9158 5.17627 25.2632C5.42893 25.4526 5.71308 25.5791 6.02895 25.5791C6.15517 25.5791 6.28161 25.5476 6.40783 25.5158C7.60788 25.2 8.90245 23.4316 9.84987 21.6317C10.4182 21.4105 11.0814 21.1896 11.8077 21.0002C12.6604 20.7475 13.4182 20.5581 14.0814 20.4319C15.3129 21.4108 16.355 21.9476 17.2708 21.9476C17.9655 21.9791 18.4708 21.7264 18.9444 21.2529C19.6392 20.5581 19.355 19.9581 19.2603 19.8001C18.692 18.9159 16.9554 18.7263 14.3658 19.2001L14.3658 19.2ZM6.09215 24.4104C5.96593 24.4419 5.90271 24.4104 5.83949 24.3789C5.71327 24.2842 5.71327 24.221 5.74477 24.1578C5.80799 23.7789 6.53424 23.0842 8.11318 22.3262C7.35523 23.463 6.59723 24.2843 6.09214 24.4105L6.09215 24.4104ZM10.5763 12C10.6078 11.9367 10.6396 11.842 10.8922 11.842C11.1134 11.842 11.2081 11.9367 11.2711 12C11.5553 12.4106 11.5238 13.4527 11.1764 14.8419C10.6396 13.6421 10.3552 12.5052 10.5763 12H10.5763ZM11.4605 19.8947C11.1447 19.9894 10.829 20.0841 10.5131 20.1788C10.6078 19.9577 10.7026 19.7367 10.7973 19.5473C11.0184 18.9473 11.2709 18.3473 11.492 17.7157C11.7447 18.0631 11.9656 18.379 12.1867 18.5999C12.4709 18.9158 12.7551 19.2 13.0394 19.4841C12.5341 19.6106 11.9973 19.7368 11.4605 19.8947L11.4605 19.8947ZM18.1237 20.463C17.9025 20.7156 17.6184 20.8104 17.271 20.8104C16.7974 20.8104 16.2289 20.5892 15.5658 20.1471C17.3974 19.8946 18.4393 20.0841 18.1237 20.463V20.463Z" fill="#007BC3"/>
<path d="M23.3053 7.61049L16.3895 0.694734C15.9474 0.252642 15.3474 0 14.7474 0H2.33689C1.70537 0 1.13684 0.252659 0.694734 0.694734C0.252642 1.13683 0 1.70514 0 2.33689V27.6631C0 28.9579 1.0421 30 2.33689 30H21.6631C22.9579 30 24 28.9579 24 27.6631V9.25264C24 8.65282 23.7473 8.05282 23.3053 7.61072V7.61049ZM21.979 8.1788H16.863C16.2947 8.1788 15.8209 7.7052 15.8209 7.1367L15.8211 2.05251L21.979 8.1788ZM21.6631 28.6419H2.33685C1.80004 28.6419 1.35797 28.1998 1.35797 27.663V2.33677C1.35797 2.08412 1.45269 1.83146 1.64213 1.64204C1.83156 1.4526 2.08422 1.35788 2.33686 1.35788H14.4631V7.1368C14.4631 8.46311 15.5367 9.53674 16.8631 9.53674H22.642V27.663C22.642 28.1996 22.1999 28.6419 21.6631 28.6419L21.6631 28.6419Z" fill="#007BC3"/>
</g>
<defs>
<clipPath id="clip0_789_6377">
<rect width="24" height="30" fill="white"/>
</clipPath>
</defs>
</svg>
