<?xml version="1.0" encoding="utf-8"?>
<!-- Generator: Adobe Illustrator 27.1.1, SVG Export Plug-In . SVG Version: 6.00 Build 0)  -->
<svg version="1.1" id="Layer_1" xmlns="http://www.w3.org/2000/svg" xmlns:xlink="http://www.w3.org/1999/xlink" x="0px" y="0px"
	 viewBox="0 0 24 24" style="enable-background:new 0 0 24 24;" xml:space="preserve">
<style type="text/css">
	.st0{clip-path:url(#SVGID_00000180335342205921771460000018146306161145604537_);}
	.st1{fill:#111111;}
</style>
<g>
	<defs>
		<rect id="SVGID_1_" width="24" height="24"/>
	</defs>
	<clipPath id="SVGID_00000057146848704631508140000002701801627366521769_">
		<use xlink:href="#SVGID_1_"  style="overflow:visible;"/>
	</clipPath>
	<g style="clip-path:url(#SVGID_00000057146848704631508140000002701801627366521769_);">
		<g>
			<path class="st1" d="M3.3,6c0,0.3,0.2,0.5,0.5,0.5S4.4,6.3,4.4,6H3.3z M13.8,16.5c-0.2,0.2-0.2,0.6,0,0.8l3.5,3.5
				c0.2,0.2,0.6,0.2,0.8,0c0.2-0.2,0.2-0.6,0-0.8L15,16.9l3.1-3.1c0.2-0.2,0.2-0.6,0-0.8c-0.2-0.2-0.6-0.2-0.8,0L13.8,16.5z M4.4,6
				V4.3H3.3V6H4.4z M7.1,1.6h12V0.5h-12V1.6z M21.8,4.3v9.3h1.1V4.3H21.8z M19.1,16.3h-4.9v1.1h4.9V16.3z M21.8,13.6
				c0,1.5-1.2,2.7-2.7,2.7v1.1c2.1,0,3.8-1.7,3.8-3.8H21.8z M19.1,1.6c1.5,0,2.7,1.2,2.7,2.7h1.1c0-2.1-1.7-3.8-3.8-3.8V1.6z
				 M4.4,4.3c0-1.5,1.2-2.7,2.7-2.7V0.5C5,0.5,3.3,2.2,3.3,4.3H4.4z"/>
			<path class="st1" d="M10.4,23.5H2.7c-0.9,0-1.6-0.7-1.6-1.6v-11c0-0.9,0.7-1.6,1.6-1.6h7.6c0.9,0,1.6,0.7,1.6,1.6v2.7
				c0,0.3-0.2,0.5-0.5,0.5s-0.5-0.2-0.5-0.5v-2.7c0-0.3-0.2-0.5-0.5-0.5H2.7c-0.3,0-0.5,0.2-0.5,0.5v11c0,0.3,0.2,0.5,0.5,0.5h7.6
				c0.3,0,0.5-0.2,0.5-0.5v-1.2c0-0.3,0.2-0.5,0.5-0.5s0.5,0.2,0.5,0.5v1.2C12,22.8,11.3,23.5,10.4,23.5z"/>
		</g>
		<path class="st1" d="M10,13.8H5c-0.3,0-0.5-0.2-0.5-0.5s0.2-0.5,0.5-0.5h5c0.3,0,0.5,0.2,0.5,0.5S10.3,13.8,10,13.8z"/>
		<path class="st1" d="M8,16.5H5c-0.3,0-0.5-0.2-0.5-0.5s0.2-0.5,0.5-0.5h3c0.3,0,0.5,0.2,0.5,0.5S8.3,16.5,8,16.5z"/>
	</g>
</g>
</svg>
