<svg width="20" height="20" viewBox="0 0 20 20" fill="none" xmlns="http://www.w3.org/2000/svg">
<rect width="20" height="20" rx="10" fill="white"/>
<path fill-rule="evenodd" clip-rule="evenodd" d="M7.81262 12.1886C7.6885 12.0645 7.70975 11.842 7.86008 11.6917L11.6933 7.85841C11.8437 7.70809 12.0661 7.68684 12.1903 7.81095C12.3144 7.93507 12.2931 8.15754 12.1428 8.30787L8.30953 12.1411C8.15921 12.2915 7.93673 12.3127 7.81262 12.1886Z" fill="#111111"/>
<circle cx="8.74033" cy="8.58115" r="0.521583" fill="#111111"/>
<circle cx="11.1466" cy="11.3097" r="0.521583" fill="#111111"/>
<path d="M13.4993 13.4988C11.5677 15.4304 8.43232 15.4304 6.50072 13.4988C4.56912 11.5672 4.56912 8.43186 6.50072 6.50026C8.43232 4.56865 11.5677 4.56865 13.4993 6.50026" stroke="#111111" stroke-width="0.647834" stroke-linecap="round" stroke-linejoin="round"/>
<path d="M5.22061 8.71976C5.92763 6.08115 8.64293 4.51347 11.2815 5.22048C13.9202 5.9275 15.4878 8.6428 14.7808 11.2814C14.0738 13.92 11.3585 15.4877 8.71989 14.7807" stroke="#111111" stroke-width="0.647834" stroke-linecap="round" stroke-linejoin="round"/>
</svg>
