<?xml version="1.0" encoding="UTF-8"?>
<svg id="Layer_1" data-name="Layer 1" xmlns="http://www.w3.org/2000/svg" version="1.1" viewBox="0 0 595.3 536.1">
  <defs>
    <style>
      .cls-1 {
        isolation: isolate;
      }

      .cls-2 {
        fill: #e6e7e8;
        stroke-width: 0px;
      }
    </style>
  </defs>
  <g class="cls-1">
    <g id="Layer_1-2" data-name="Layer 1">
      <path class="cls-2" d="M418.3,311.7l-15,2.6,3.9-29.9-3.9-5.9,3.9-33.8,38.4,15.6-27.3,51.3M479.4,401.4h-50.1l47.4-74.7,14.3-48.8,29.9,10.4c-2.6,37.7-15,76-41.6,113.1h0ZM461.8,324.1l-18.9,16.3-37.7,61.1h-24.7l24.7-43.5,19.5-16.2,28-78.7,29.9,12.4-20.8,48.8h0ZM397.4,171.9l-99.5-57.9-36.4-6.5v26.7l27.9,26-39-3.2s1.3,2,33.8,36.4l148.2,24.7,26,16.9-67.6,3.2-28,102.1-91.7,61.1h-59.8l20.1-39.6-3.2-1.3-54,40.9h-13l55.2-77.3c2.6-22.1,1.3-12.4,4.6-52l-8.4-11.7-22.1,85.8-46.2,55.2h-11.7l27.3-38.4,38.4-117.6-9.7,4.6-16.9,46.8-11.7,6.5s-27.3,66.3-41.6,98.8c-20.8-29.9-44.2-70.2-44.2-140.4,0-105.3,90.4-216.5,226.2-216.5s200.2,104,211.9,158l-115-31.2v.2ZM366.9,401.4h-31.2l57.9-72.1,5.8,11-32.5,61.1h0ZM299.3,491.1c-55.3,0-122.9-19.5-171.7-79.3h342.6c-39.6,51.3-107.9,79.3-171,79.3h0ZM300.6,59.5c-127.4,0-210.6,104.7-210.6,202.2s13.6,83.9,28.6,110.5c18.9-50.7,56.6-151.5,56.6-151.5,0,0,17.5-9.1,17.5-7.8l25.3-64.4,16.3-8.5,20.2-42.9,44.2,7.1,89.7,50,100.8,27.9c-26-66.3-99.5-122.9-188.5-122.9h0Z"/>
    </g>
  </g>
</svg>