<svg xmlns="http://www.w3.org/2000/svg" shape-rendering="geometricPrecision" text-rendering="geometricPrecision" image-rendering="optimizeQuality" fill-rule="evenodd" clip-rule="evenodd" viewBox="0 0 421 511.605"><path fill="#E44B4D" d="M95.705.014h199.094L421 136.548v317.555c0 31.54-25.961 57.502-57.502 57.502H95.705c-31.55 0-57.502-25.873-57.502-57.502V57.515C38.203 25.886 64.076.014 95.705.014z"/><path fill="#CD4445" d="M341.028 133.408h-.019L421 188.771v-52.066h-54.357c-9.458-.15-17.998-1.274-25.615-3.297z"/><path fill="#FBCFD0" d="M294.8 0L421 136.533v.172h-54.357c-45.068-.718-69.33-23.397-71.843-61.384V0z"/><path fill="#CD4445" fill-rule="nonzero" d="M0 431.901V253.404l.028-1.261c.668-16.446 14.333-29.706 30.936-29.706h7.238v50.589h350.341c12.862 0 23.373 10.51 23.373 23.371v135.504c0 12.83-10.543 23.373-23.373 23.373H23.373C10.541 455.274 0 444.75 0 431.901z"/><path fill="#963232" fill-rule="nonzero" d="M143.448 240.364a8.496 8.496 0 01-8.496-8.497 8.496 8.496 0 018.496-8.497h163.176a8.496 8.496 0 018.496 8.497 8.496 8.496 0 01-8.496 8.497H143.448zm0-59.176a8.496 8.496 0 010-16.993h172.304a8.496 8.496 0 110 16.993H143.448z"/><path fill="#fff" fill-rule="nonzero" d="M11.329 276.171v154.728c0 7.793 6.38 14.178 14.179 14.178h362.033c7.8 0 14.179-6.379 14.179-14.178V297.405c0-7.798-6.407-14.178-14.179-14.178H37.892c-12.618-.096-19.586-1.638-26.563-7.056z"/><path fill="#1A1A1A" fill-rule="nonzero" d="M70.68 401.572l-2.62-20.964h10.875c2.709 0 4.434-.371 5.177-1.114.743-.743 1.113-1.682 1.113-2.817v-36.034H74.35v-20.965h37.08v60.274c0 7.076-1.746 12.449-5.24 16.116-3.494 3.67-8.516 5.504-15.069 5.504H70.68zm98.074-19.785H151.72v19.785h-26.205v-81.894h41.274c18.782 0 28.171 10.09 28.171 30.269 0 11.094-2.445 19.306-7.336 24.634-1.835 2.008-4.368 3.712-7.6 5.11-3.233 1.396-6.988 2.096-11.27 2.096zm-17.034-41.144v20.179h6.029c3.144 0 5.437-.327 6.878-.982 1.443-.656 2.162-2.162 2.162-4.522v-9.171c0-2.359-.719-3.866-2.162-4.521-1.441-.655-3.734-.983-6.878-.983h-6.029zm106.464 30.006h-26.208v9.959h32.104v20.964h-58.309v-81.894h57.654l-3.276 20.965h-28.173v11.008h26.208v18.998zm61.91 6.814v-3.537h-6.682v-20.048h31.577v43.764c-10.394 3.93-21.138 5.896-32.232 5.896-14.938 0-25.201-3.625-30.793-10.876-2.881-3.757-4.892-8.167-6.026-13.234-1.137-5.065-1.704-11.333-1.704-18.803 0-7.469.59-13.713 1.768-18.736 1.179-5.024 3.299-9.413 6.356-13.17 5.765-7.337 16.901-11.006 33.411-11.006 3.408 0 7.842.349 13.301 1.049 5.459.698 9.456 1.484 11.989 2.359l-3.931 20.047c-7.075-1.223-13.474-1.835-19.197-1.835-5.72 0-9.738.437-12.054 1.31-2.315.874-3.473 2.62-3.473 5.241v37.083h8.649c3.145 0 5.438-.328 6.878-.983 1.443-.655 2.163-2.162 2.163-4.521z"/></svg>