<svg width="50" height="64" viewBox="0 0 50 64" fill="none" xmlns="http://www.w3.org/2000/svg">
<g clip-path="url(#clip0_1656_9719)">
<mask id="mask0_1656_9719" style="mask-type:luminance" maskUnits="userSpaceOnUse" x="-1" y="0" width="51" height="64">
<path d="M49.998 0H-0.00195312V64H49.998V0Z" fill="white"/>
</mask>
<g mask="url(#mask0_1656_9719)">
<path d="M36.7531 26.5047L35.2966 26.7653L35.6762 23.7906L35.2966 23.2061L35.6762 19.8478L39.4142 21.4004L36.7494 26.5047M42.7106 35.4215H37.83L42.4551 27.994L43.8459 23.1465L46.7626 24.1815C46.507 27.9307 45.3024 31.7431 42.7069 35.4253M40.9949 27.7371L39.1587 29.3529L35.4827 35.4215H33.0771L35.4827 31.0916L37.3846 29.4795L40.1115 21.6572L43.0245 22.8859L40.9949 27.7371ZM34.7234 12.6101L25.0242 6.85794L21.476 6.21012V8.86097L24.1992 11.4485L20.3991 11.1246C20.3991 11.1246 20.5232 11.3182 23.6955 14.7435L38.1439 17.197L40.6773 18.8761L34.0846 19.2L31.3577 29.3492L22.4215 35.4178H16.5917L18.5557 31.4825L18.2381 31.3522L12.9778 35.4215H11.7111L17.0991 27.7333C17.351 25.533 17.2269 26.5047 17.5408 22.562L16.7195 21.4004L14.5621 29.9337L10.0611 35.4215H8.91852L11.5797 31.6091L15.3177 19.9111L14.3686 20.3653L12.7223 25.0192L11.5797 25.667C11.5797 25.667 8.91852 32.2569 7.52405 35.4923C5.49441 32.5212 3.21289 28.5152 3.21289 21.5307C3.22384 11.0539 12.036 0 25.2834 0C38.5308 0 44.8023 10.3428 45.9449 15.7077L34.7271 12.6064L34.7234 12.6101ZM31.7447 35.4215H28.7002L34.3438 28.2509L34.9133 29.3492L31.7447 35.4178V35.4215ZM25.152 44.3458C19.764 44.3458 13.1713 42.4061 8.41841 36.4603H41.8199C37.9541 41.5684 31.2993 44.3458 25.152 44.3458ZM25.2798 1.42595C12.861 1.42222 4.74607 11.832 4.74607 21.5269C4.74607 27.0892 6.07848 29.8667 7.535 32.5175C9.37482 27.4764 13.0472 17.4539 13.0472 17.4539C13.0472 17.4539 14.7592 16.5492 14.7592 16.6757L17.2306 10.2795L18.8148 9.43805L20.7788 5.17138L25.0863 5.88249L33.8327 10.8565L43.656 13.6377C41.1263 7.04782 33.9641 1.42222 25.2834 1.42222" fill="#001F45"/>
<path d="M8.65845 50.7167H6.70182V51.1858H6.86244C7.04861 51.1858 7.18003 51.264 7.24939 51.4167C7.29319 51.5172 7.31509 52.0049 7.31509 52.8799V55.4116C7.31509 55.6759 7.28224 55.8509 7.21288 55.9402C7.12527 56.0445 6.95735 56.0929 6.71277 56.0929H6.59961V56.5657H9.73533V56.0929H9.53821C9.24252 56.0929 9.05635 56.0519 8.97604 55.9737C8.89938 55.8918 8.85923 55.7057 8.85923 55.4078V54.2425C8.85923 53.8181 8.91033 53.3378 9.01255 52.7979C9.13666 52.139 9.30823 51.6698 9.51996 51.3943C9.50901 51.4465 9.49805 51.4874 9.4944 51.5172C9.4871 51.7108 9.55281 51.8672 9.68788 51.9863C9.82294 52.1055 9.98721 52.165 10.1843 52.165C10.3961 52.165 10.5786 52.0831 10.721 51.9193C10.867 51.7555 10.94 51.5619 10.94 51.3348C10.94 50.8173 10.6552 50.5566 10.0894 50.5566C9.38489 50.5566 8.92494 50.9922 8.70956 51.856L8.6621 50.7093" fill="#001F45"/>
<path d="M20.6692 50.5582C20.348 50.5582 20.0413 50.6364 19.7529 50.7891C19.4463 50.9492 19.22 51.1725 19.0849 51.4518L19.0667 50.7109H17.0078V51.18H17.1502C17.413 51.18 17.5773 51.2805 17.643 51.4778C17.6722 51.5635 17.6904 51.7906 17.6904 52.1629V55.0892C17.6904 55.5695 17.6503 55.8525 17.5773 55.9344C17.4824 56.0386 17.3656 56.087 17.2195 56.087H17.0115V56.5599H19.9866V56.087H19.7785C19.5814 56.087 19.439 56.0349 19.3441 55.9344C19.293 55.8785 19.2711 55.5993 19.2711 55.1041V52.8889C19.2711 52.3193 19.3258 51.9358 19.4427 51.7422C19.6033 51.4667 19.8223 51.3289 20.0924 51.3289C20.5341 51.3289 20.7532 51.6193 20.7532 52.1964V56.5599H23.0383V56.087H22.8595C22.6185 56.087 22.4689 56.0275 22.3959 55.9046C22.3593 55.8264 22.3411 55.5695 22.3411 55.1339V52.9187C22.3411 51.8613 22.6185 51.3289 23.1734 51.3289C23.6261 51.3289 23.856 51.6193 23.856 52.1964V56.5599H26.1302V56.087H25.9769C25.6374 56.087 25.4586 55.9455 25.4367 55.6626C25.4294 55.5919 25.4294 55.4131 25.4294 55.1227V52.4458C25.4294 51.1837 24.8672 50.5508 23.7392 50.5508C23.0529 50.5508 22.5273 50.8337 22.1622 51.3959C21.903 50.83 21.4102 50.5508 20.6801 50.5508" fill="#001F45"/>
<path d="M33.645 50.7144H31.6738V51.1835H31.8527C32.0388 51.1835 32.1703 51.2617 32.2396 51.4144C32.2834 51.5149 32.3053 52.0026 32.3053 52.8775V55.4092C32.3053 55.6736 32.2725 55.8486 32.2031 55.9379C32.1155 56.0422 31.9476 56.0906 31.703 56.0906H31.5898V56.5634H34.7256V56.0906H34.5248C34.2291 56.0906 34.0429 56.0496 33.9626 55.9714C33.886 55.8895 33.8458 55.7034 33.8458 55.4055V54.2402C33.8458 53.8083 33.8969 53.3243 33.9955 52.7845C34.1232 52.1255 34.2912 51.6564 34.5065 51.3883C34.4919 51.4404 34.4846 51.4814 34.481 51.5112C34.4737 51.6973 34.5357 51.85 34.6745 51.9728C34.8095 52.0957 34.9774 52.1552 35.1709 52.1552C35.3826 52.1552 35.5615 52.0733 35.7112 51.9095C35.8572 51.7457 35.9266 51.5521 35.9266 51.325C35.9266 50.8075 35.6418 50.5469 35.076 50.5469C34.3715 50.5469 33.9115 50.9788 33.6961 51.8388L33.6487 50.7032" fill="#001F45"/>
<path d="M37.0179 49.7817C37.2004 49.9753 37.4195 50.0684 37.6823 50.0684C37.9451 50.0684 38.1605 49.9716 38.3467 49.7817C38.5329 49.5881 38.6241 49.361 38.6241 49.0967C38.6241 48.8323 38.5292 48.6015 38.3467 48.4191C38.1605 48.2366 37.9378 48.1436 37.6823 48.1436C37.4268 48.1436 37.1931 48.2366 37.0143 48.4191C36.8354 48.6015 36.7441 48.8286 36.7441 49.0967C36.7441 49.3647 36.8354 49.5881 37.0179 49.7817Z" fill="#001F45"/>
<path d="M36.3161 56.5693H39.1671V56.0964H39.0357C38.824 56.0964 38.6743 56.048 38.6013 55.9512C38.5429 55.873 38.5174 55.5938 38.5174 55.1024V50.7314H36.3161V51.2043H36.4658C36.6994 51.2043 36.8491 51.2899 36.9112 51.4649C36.944 51.5468 36.9586 51.7404 36.9586 52.042V55.1135C36.9586 55.5231 36.9404 55.78 36.9002 55.873C36.8418 56.022 36.6994 56.0927 36.4622 56.0927H36.3125V56.5655" fill="#001F45"/>
<path d="M42.832 51.292C42.6057 51.292 42.4195 51.3628 42.2772 51.5043C42.1311 51.6457 42.0618 51.8319 42.0618 52.0627C42.0618 52.3047 42.1603 52.502 42.3538 52.651C42.5254 52.7738 42.7335 52.8334 42.9853 52.8334C43.2372 52.8334 43.449 52.7441 43.6351 52.5653C43.8249 52.3866 43.9199 52.1707 43.9199 51.9175C43.9199 51.4484 43.7191 51.0947 43.3248 50.849C42.9963 50.6554 42.5838 50.5586 42.0873 50.5586C41.2295 50.5586 40.5469 50.8564 40.0394 51.4559C39.5612 52.0255 39.3203 52.7552 39.3203 53.6413C39.3203 54.5795 39.5247 55.3167 39.9336 55.8566C40.3935 56.4523 41.0689 56.7538 41.9632 56.7538C42.6751 56.7538 43.2336 56.4932 43.6424 55.972C43.9746 55.5438 44.1462 55.0561 44.1535 54.5088H43.5585C43.5512 54.9444 43.438 55.3204 43.219 55.6369C42.9598 55.9906 42.6276 56.1656 42.2188 56.1656C41.6894 56.1656 41.339 55.8528 41.1601 55.2236C41.0725 54.896 41.0287 54.3673 41.0287 53.645C41.0287 51.9324 41.4996 51.0724 42.4378 51.0724C42.7517 51.0724 42.989 51.1692 43.146 51.3628C43.073 51.3181 42.9671 51.2958 42.8357 51.2958" fill="#001F45"/>
<path fill-rule="evenodd" clip-rule="evenodd" d="M28.0063 54.777C28.1669 55.6892 28.5648 56.1471 29.1963 56.1471C29.6052 56.1471 29.9702 55.9796 30.2878 55.6445C30.6054 55.3095 30.766 54.9297 30.7733 54.509H31.3464C31.3318 55.0302 31.1201 55.5179 30.7039 55.9722C30.2294 56.4934 29.6526 56.754 28.9663 56.754C28.072 56.754 27.3857 56.4562 26.9002 55.8567C26.4548 55.3057 26.2285 54.5686 26.2285 53.6415C26.2285 52.7815 26.4621 52.0629 26.9257 51.4858C27.4295 50.8678 28.0939 50.5625 28.9189 50.5625C29.7439 50.5625 30.3973 50.8492 30.8244 51.4188C31.2077 51.9252 31.4048 52.6251 31.4121 53.5075H27.9077C27.9077 54.0324 27.9442 54.4569 28.0063 54.777ZM27.9406 52.4948C27.926 52.6251 27.915 52.7964 27.9077 53.016H29.8169C29.8169 51.6757 29.5103 51.0018 28.9006 51.0018C28.3385 51.0018 28.0172 51.5007 27.9369 52.4948" fill="#001F45"/>
<path fill-rule="evenodd" clip-rule="evenodd" d="M3.12282 48.5844H2.60446V52.408H3.12282C4.12304 52.408 4.62315 51.7863 4.62315 50.539C4.62315 49.2918 4.12304 48.5844 3.12282 48.5844ZM2.5643 52.9479V55.3716C2.5643 55.662 2.61906 55.8519 2.72857 55.9487C2.83808 56.0455 3.03886 56.0939 3.32724 56.0939H3.72514V56.5667H-0.00195312V56.0939H0.140414C0.436099 56.0939 0.636873 56.0492 0.750036 55.9561C0.859549 55.8631 0.914306 55.6695 0.914306 55.3716V49.3551C0.914306 48.9642 0.837647 48.7259 0.687979 48.644C0.600369 48.5881 0.370391 48.5583 -0.00195312 48.5583V48.0967H3.13377C4.03908 48.0967 4.76916 48.2679 5.32403 48.6067C5.99571 49.0237 6.33155 49.6641 6.33155 50.5316C6.33155 51.3991 5.98476 52.0208 5.29483 52.4378C4.73631 52.7766 4.00622 52.9479 3.11552 52.9479H2.56795H2.5643Z" fill="#001F45"/>
<path fill-rule="evenodd" clip-rule="evenodd" d="M47.5593 55.4321C47.7054 55.1752 47.7674 54.8066 47.7674 54.3226V53.4552C47.2272 53.5669 46.8475 53.7083 46.6358 53.8908C46.3511 54.1216 46.2087 54.4939 46.2087 55.0077C46.2087 55.6332 46.4168 55.9422 46.8329 55.9422C47.1286 55.9422 47.3768 55.7709 47.5557 55.4321M47.0921 50.5586C48.5961 50.5586 49.3408 51.2362 49.3408 52.5914V55.4023C49.3408 55.864 49.505 56.0948 49.8336 56.0948H49.9942V56.5677H47.8514V55.7672C47.7017 56.0576 47.4754 56.2922 47.1797 56.4746C46.884 56.657 46.5774 56.7501 46.2561 56.7501C45.7706 56.7501 45.3764 56.6198 45.077 56.3554C44.7522 56.0725 44.5879 55.6965 44.5879 55.2199C44.5879 54.5833 44.8909 54.0844 45.4932 53.7269C45.9532 53.4514 46.7124 53.2057 47.7674 52.9935V52.0702C47.7674 51.4037 47.4097 51.0687 46.6905 51.0687C46.4898 51.0687 46.2817 51.1133 46.07 51.2027C45.902 51.2697 45.7743 51.3516 45.6903 51.4447C45.7925 51.4112 45.8327 51.4037 45.9203 51.4037C46.4058 51.4037 46.6467 51.6383 46.6467 52.1074C46.6467 52.3271 46.5628 52.5058 46.3876 52.6473C46.2123 52.7887 46.0189 52.8595 45.7998 52.8595C45.548 52.8595 45.3399 52.7738 45.1829 52.6026C45.0223 52.4313 44.942 52.2191 44.942 51.9622C44.942 51.4819 45.1975 51.1133 45.7049 50.8564C46.1065 50.6591 46.5774 50.5586 47.0994 50.5586" fill="#001F45"/>
<path fill-rule="evenodd" clip-rule="evenodd" d="M14.1724 55.4321C14.3184 55.1752 14.3804 54.8066 14.3804 54.3226V53.4552C13.8402 53.5669 13.4605 53.7083 13.2488 53.8908C12.9641 54.1216 12.8217 54.4939 12.8217 55.0077C12.8217 55.6332 13.0298 55.9422 13.4459 55.9422C13.7416 55.9422 13.9898 55.7709 14.1687 55.4321M13.7088 50.5586C15.2127 50.5586 15.9574 51.2362 15.9574 52.5914V55.4023C15.9574 55.864 16.1217 56.0948 16.4466 56.0948H16.6072V56.5677H14.4644V55.7672C14.3147 56.0576 14.0884 56.2922 13.7927 56.4746C13.497 56.657 13.1868 56.7501 12.8655 56.7501C12.38 56.7501 11.9894 56.6198 11.6864 56.3554C11.3579 56.0725 11.1973 55.6965 11.1973 55.2199C11.1973 54.5833 11.5003 54.0844 12.1026 53.7269C12.5625 53.4514 13.3218 53.2057 14.3768 52.9935V52.0702C14.3768 51.4037 14.0191 51.0687 13.2999 51.0687C13.0991 51.0687 12.8947 51.1133 12.6793 51.2027C12.5114 51.2697 12.3837 51.3516 12.2997 51.4447C12.4019 51.4112 12.4421 51.4037 12.5297 51.4037C13.0152 51.4037 13.2561 51.6383 13.2561 52.1074C13.2561 52.3271 13.1722 52.5058 12.9969 52.6473C12.8254 52.7887 12.6282 52.8595 12.4092 52.8595C12.1573 52.8595 11.9493 52.7738 11.7886 52.6026C11.628 52.4313 11.5477 52.2191 11.5477 51.9622C11.5477 51.4819 11.8032 51.1133 12.3106 50.8564C12.7122 50.6591 13.1831 50.5586 13.7051 50.5586" fill="#001F45"/>
<path d="M4.13672 63.9434V60.0342H4.86681V63.3142H6.53505V63.9434H4.13672Z" fill="#001F45"/>
<path d="M7.9216 60.0342H7.1875V63.9434H7.9216V60.0342Z" fill="#001F45"/>
<path d="M8.85742 63.9434V60.0342H11.3032V60.6634H9.59116V61.5942H10.8725V62.2234H9.59116V63.9434H8.85742Z" fill="#001F45"/>
<path d="M11.8438 63.9434V60.0342H14.3808V60.6634H12.5775V61.5942H13.888V62.2234H12.5775V63.3142H14.4392V63.9434H11.8438Z" fill="#001F45"/>
<path d="M17.5114 60.0342H16.7773V63.9434H17.5114V60.0342Z" fill="#001F45"/>
<path d="M18.4629 63.9434V60.0342H19.2295L20.7371 62.6999H20.7481V60.0342H21.438V63.9434H20.7298L19.1638 61.1586H19.1528V63.9434H18.4629Z" fill="#001F45"/>
<path d="M24.0936 61.0741C24.0352 60.9214 23.9512 60.7986 23.8381 60.7055C23.7249 60.6124 23.5789 60.564 23.4073 60.564C23.2467 60.564 23.1189 60.5975 23.0131 60.6683C22.9108 60.7353 22.8597 60.847 22.8597 60.9996C22.8597 61.1113 22.9072 61.2044 23.0058 61.2788C23.1043 61.3533 23.2248 61.4241 23.3708 61.4836C23.5168 61.5469 23.6774 61.6102 23.8454 61.6772C24.0169 61.7442 24.1739 61.8224 24.3199 61.9192C24.4659 62.016 24.59 62.1352 24.6886 62.2729C24.7872 62.4144 24.8346 62.5894 24.8346 62.7979C24.8346 63.2037 24.7178 63.5053 24.4842 63.7026C24.2506 63.8999 23.9184 64.0004 23.4913 64.0004C23.3343 64.0004 23.1846 63.9781 23.035 63.9371C22.8853 63.8925 22.7466 63.8329 22.6225 63.751C22.4947 63.6728 22.3815 63.576 22.283 63.4606C22.1844 63.3452 22.1114 63.2149 22.0566 63.0771L22.6626 62.8053C22.7502 62.9878 22.8597 63.1367 22.9839 63.2484C23.108 63.3601 23.2795 63.4159 23.4949 63.4159C23.5862 63.4159 23.6738 63.4085 23.7504 63.3898C23.8271 63.3712 23.8965 63.3414 23.9549 63.3005C24.0133 63.2595 24.0607 63.2037 24.0936 63.1367C24.1264 63.0697 24.1447 62.9915 24.1447 62.8947C24.1447 62.7681 24.0972 62.6638 23.9987 62.5782C23.9001 62.4926 23.7796 62.4181 23.6336 62.3474C23.484 62.2804 23.327 62.2133 23.1591 62.1463C22.9875 62.083 22.8305 62.0011 22.6845 61.9118C22.5385 61.8187 22.4144 61.707 22.3158 61.5767C22.2173 61.4464 22.1698 61.2788 22.1698 61.0741C22.1698 60.9028 22.2027 60.7464 22.272 60.6087C22.3377 60.4709 22.429 60.3555 22.5421 60.2662C22.6553 60.1731 22.7867 60.1024 22.9364 60.054C23.0861 60.0056 23.243 59.9795 23.4073 59.9795C23.7139 59.9795 23.9914 60.054 24.2323 60.2066C24.4732 60.3592 24.6521 60.5752 24.7653 60.8619L24.0972 61.0741H24.0936Z" fill="#001F45"/>
<path d="M27.7685 60.0342H28.5023V62.484C28.5023 62.7669 28.4621 63.0089 28.3818 63.2025C28.3015 63.3961 28.1956 63.5525 28.0569 63.6716C27.9219 63.7908 27.7649 63.8764 27.586 63.9248C27.4072 63.9769 27.221 64.003 27.0275 64.003C26.834 64.003 26.6479 63.9769 26.469 63.9248C26.2901 63.8764 26.1368 63.7908 25.9981 63.6716C25.8594 63.5525 25.7535 63.3961 25.6732 63.2025C25.5929 63.0089 25.5527 62.7707 25.5527 62.484V60.0342H26.2865V62.5138C26.2865 62.8302 26.3485 63.0536 26.469 63.1802C26.5931 63.3068 26.7756 63.3701 27.0239 63.3701C27.2721 63.3701 27.4583 63.3068 27.5787 63.1802C27.6992 63.0536 27.7612 62.8302 27.7612 62.5138V60.0342H27.7685Z" fill="#001F45"/>
<path d="M29.365 63.9434V60.0342H30.8945C31.1099 60.0342 31.2961 60.064 31.453 60.1235C31.61 60.1831 31.7341 60.265 31.8327 60.3693C31.9312 60.4735 32.0042 60.5964 32.0517 60.7378C32.0992 60.8793 32.1247 61.032 32.1247 61.1921C32.1247 61.4341 32.0699 61.6463 31.9495 61.825C31.8327 62.0037 31.6538 62.1303 31.4202 62.201L32.2634 63.9434H31.4494L30.7266 62.3499H30.0951V63.9434H29.3613H29.365ZM30.0987 61.7431H30.639C30.9274 61.7431 31.1208 61.6984 31.2304 61.6053C31.3362 61.5122 31.3873 61.3745 31.3873 61.1921C31.3873 61.0096 31.3362 60.8682 31.2304 60.7788C31.1245 60.6857 30.9712 60.641 30.7667 60.641H30.0987V61.7468V61.7431Z" fill="#001F45"/>
<path d="M33.661 60.0283H34.5736L35.6615 63.945H34.935L34.7233 63.0999H33.5114L33.285 63.945H32.5586L33.6647 60.0283H33.661ZM33.672 62.4818H34.5663L34.1356 60.7804H34.1246L33.672 62.4818Z" fill="#001F45"/>
<path d="M36.166 63.9434V60.0342H36.929L38.4402 62.6999H38.4512V60.0342H39.1411V63.9434H38.4329L36.8669 61.1586H36.8559V63.9434H36.166Z" fill="#001F45"/>
<path d="M41.9463 61.1691C41.8952 61.0016 41.8076 60.8675 41.6944 60.7633C41.5776 60.6591 41.4316 60.6069 41.2527 60.6069C41.0081 60.6069 40.8146 60.7223 40.6759 60.9495C40.5372 61.1803 40.4642 61.5228 40.4642 61.9882C40.4533 62.9078 40.7234 63.3695 41.271 63.3695C41.3513 63.3695 41.4279 63.3583 41.4973 63.3434C41.5666 63.3248 41.6287 63.295 41.6908 63.2503C41.7492 63.2094 41.8076 63.1498 41.8587 63.0753C41.9134 63.0009 41.9682 62.9041 42.0193 62.7887L42.6983 62.9748C42.5851 63.3136 42.4062 63.5705 42.1653 63.7418C41.9207 63.913 41.625 63.9987 41.271 63.9987C40.7781 63.9987 40.3985 63.8237 40.132 63.4774C39.8655 63.1275 39.7305 62.6323 39.7305 61.9919C39.7305 61.3515 39.8655 60.8526 40.132 60.5027C40.3985 60.1527 40.7781 59.9814 41.271 59.9814C41.6396 59.9814 41.9317 60.0671 42.1471 60.2346C42.3624 60.4022 42.5194 60.6628 42.6107 61.0127L41.9463 61.1766V61.1691Z" fill="#001F45"/>
<path d="M43.2617 63.9434V60.0342H45.7988V60.6634H43.9955V61.5942H45.306V62.2234H43.9955V63.3142H45.8608V63.9434H43.2617Z" fill="#001F45"/>
</g>
</g>
<defs>
<clipPath id="clip0_1656_9719">
<rect width="50" height="64" fill="white"/>
</clipPath>
</defs>
</svg>
