<svg width="63" height="79" viewBox="0 0 63 79" fill="none" xmlns="http://www.w3.org/2000/svg">
<g clip-path="url(#clip0_1661_8251)">
<mask id="mask0_1661_8251" style="mask-type:luminance" maskUnits="userSpaceOnUse" x="0" y="0" width="63" height="79">
<path d="M63 0H0V79H63V0Z" fill="white"/>
</mask>
<g mask="url(#mask0_1661_8251)">
<path d="M46.3075 32.7168L44.4723 33.0385L44.9506 29.3665L44.4723 28.645L44.9506 24.4997L49.6606 26.4161L46.3029 32.7168M53.814 43.7234H47.6644L53.492 34.555L55.2444 28.5714L58.9195 29.849C58.5975 34.4769 57.0797 39.1829 53.8094 43.728M51.6522 34.2379L49.3386 36.2325L44.7069 43.7234H41.6758L44.7069 38.3787L47.1032 36.3887L50.5391 26.7332L54.2095 28.2497L51.6522 34.2379ZM43.7502 15.5656L31.5292 8.46527L27.0584 7.66562V10.9378L30.4897 14.1318L25.7015 13.7319C25.7015 13.7319 25.8579 13.9709 29.8549 18.199L48.0599 21.2275L51.252 23.3002L42.9452 23.7L39.5094 36.2279L28.2497 43.7188H20.9042L23.3788 38.8612L22.9786 38.7004L16.3507 43.7234H14.7546L21.5436 34.2333C21.8609 31.5173 21.7045 32.7168 22.1001 27.8499L21.0652 26.4161L18.3469 36.9494L12.6756 43.7234H11.236L14.589 39.0175L19.299 24.5778L18.1031 25.1385L16.0287 30.8831L14.589 31.6827C14.589 31.6827 11.236 39.8171 9.47894 43.8108C6.92159 40.1434 4.04688 35.1984 4.04688 26.5769C4.06067 13.6446 15.164 0 31.8557 0C48.5475 0 56.4495 12.7668 57.8892 19.3892L43.7548 15.561L43.7502 15.5656ZM39.9969 43.7234H36.1609L43.2718 34.8721L43.9893 36.2279L39.9969 43.7188V43.7234ZM31.6902 54.7393C24.9012 54.7393 16.5944 52.345 10.6058 45.0056H52.6917C47.8208 51.3109 39.4358 54.7393 31.6902 54.7393ZM31.8511 1.76015C16.2035 1.75556 5.97868 14.6051 5.97868 26.5723C5.97868 33.4383 7.65752 36.8667 9.49274 40.1388C11.8109 33.9162 16.4381 21.5446 16.4381 21.5446C16.4381 21.5446 18.5952 20.4279 18.5952 20.5841L21.7091 12.6887L23.7053 11.6501L26.1799 6.38342L31.6074 7.2612L42.6279 13.401L55.0053 16.834C51.8178 8.69965 42.7935 1.75556 31.8557 1.75556" fill="white"/>
<path d="M10.9066 62.6039H8.44129V63.1829H8.64367C8.87824 63.1829 9.04383 63.2794 9.13122 63.4679C9.18641 63.5919 9.21401 64.194 9.21401 65.274V68.399C9.21401 68.7253 9.17262 68.9413 9.08522 69.0516C8.97483 69.1803 8.76326 69.2401 8.45509 69.2401H8.3125V69.8237H12.2635V69.2401H12.0151C11.6426 69.2401 11.408 69.1895 11.3068 69.093C11.2102 68.9919 11.1596 68.7621 11.1596 68.3944V66.956C11.1596 66.4321 11.224 65.8392 11.3528 65.1729C11.5092 64.3594 11.7254 63.7804 11.9921 63.4403C11.9783 63.5046 11.9645 63.5552 11.9599 63.5919C11.9507 63.8309 12.0335 64.0239 12.2037 64.171C12.3739 64.3181 12.5809 64.3916 12.8293 64.3916C13.096 64.3916 13.326 64.2905 13.5054 64.0883C13.6894 63.8861 13.7814 63.6471 13.7814 63.3668C13.7814 62.728 13.4226 62.4062 12.7097 62.4062C11.822 62.4062 11.2424 62.9439 10.971 64.0102L10.9112 62.5947" fill="white"/>
<path d="M26.043 62.4079C25.6383 62.4079 25.2519 62.5044 24.8885 62.6928C24.5022 62.8904 24.217 63.1662 24.0468 63.5108L24.0238 62.5963H21.4297V63.1754H21.6091C21.9402 63.1754 22.1472 63.2994 22.23 63.543C22.2668 63.6487 22.2898 63.929 22.2898 64.3886V68.0008C22.2898 68.5937 22.2392 68.943 22.1472 69.0441C22.0276 69.1727 21.8804 69.2325 21.6965 69.2325H21.4343V69.8161H25.1829V69.2325H24.9207C24.6724 69.2325 24.493 69.1681 24.3734 69.0441C24.309 68.9751 24.2814 68.6304 24.2814 68.0192V65.2848C24.2814 64.5816 24.3504 64.1083 24.4976 63.8693C24.7 63.5292 24.9759 63.3592 25.3163 63.3592C25.8729 63.3592 26.1488 63.7176 26.1488 64.43V69.8161H29.0281V69.2325H28.8028C28.4992 69.2325 28.3106 69.159 28.2186 69.0073C28.1726 68.9108 28.1496 68.5937 28.1496 68.056V65.3215C28.1496 64.0164 28.4992 63.3592 29.1983 63.3592C29.7687 63.3592 30.0584 63.7176 30.0584 64.43V69.8161H32.924V69.2325H32.7308C32.303 69.2325 32.0776 69.0578 32.05 68.7086C32.0408 68.6213 32.0408 68.4007 32.0408 68.0422V64.7379C32.0408 63.1799 31.3325 62.3987 29.9113 62.3987C29.0465 62.3987 28.3842 62.748 27.9243 63.4419C27.5977 62.7434 26.9767 62.3987 26.0568 62.3987" fill="white"/>
<path d="M42.3942 62.6023H39.9105V63.1814H40.1359C40.3704 63.1814 40.536 63.2779 40.6234 63.4663C40.6786 63.5904 40.7062 64.1924 40.7062 65.2724V68.3975C40.7062 68.7238 40.6648 68.9398 40.5774 69.0501C40.467 69.1788 40.2554 69.2385 39.9473 69.2385H39.8047V69.8221H43.7557V69.2385H43.5027C43.1302 69.2385 42.8956 69.1879 42.7944 69.0914C42.6978 68.9903 42.6472 68.7605 42.6472 68.3929V66.9544C42.6472 66.4213 42.7116 65.8239 42.8358 65.1575C42.9968 64.3441 43.2084 63.765 43.4797 63.4341C43.4613 63.4985 43.4521 63.549 43.4475 63.5858C43.4383 63.8156 43.5165 64.004 43.6913 64.1557C43.8615 64.3073 44.0731 64.3808 44.3168 64.3808C44.5836 64.3808 44.809 64.2797 44.9976 64.0775C45.1816 63.8753 45.2689 63.6363 45.2689 63.356C45.2689 62.7172 44.9102 62.3955 44.1973 62.3955C43.3095 62.3955 42.73 62.9286 42.4586 63.9902L42.3988 62.5885" fill="white"/>
<path d="M46.6418 61.4474C46.8718 61.6864 47.1478 61.8013 47.479 61.8013C47.8101 61.8013 48.0815 61.6818 48.3161 61.4474C48.5507 61.2084 48.6656 60.9281 48.6656 60.6018C48.6656 60.2755 48.5461 59.9906 48.3161 59.7654C48.0815 59.5402 47.8009 59.4253 47.479 59.4253C47.157 59.4253 46.8626 59.5402 46.6372 59.7654C46.4119 59.9906 46.2969 60.2709 46.2969 60.6018C46.2969 60.9327 46.4119 61.2084 46.6418 61.4474Z" fill="white"/>
<path d="M45.7624 69.8296H49.3547V69.2459H49.1891C48.9223 69.2459 48.7337 69.1862 48.6417 69.0667C48.5681 68.9702 48.5359 68.6255 48.5359 68.0189V62.6235H45.7624V63.2072H45.951C46.2454 63.2072 46.4339 63.3129 46.5121 63.5289C46.5535 63.63 46.5719 63.869 46.5719 64.2412V68.0327C46.5719 68.5382 46.5489 68.8553 46.4983 68.9702C46.4247 69.154 46.2454 69.2413 45.9464 69.2413H45.7578V69.825" fill="white"/>
<path d="M53.9716 63.315C53.6865 63.315 53.4519 63.4023 53.2725 63.577C53.0885 63.7516 53.0011 63.9814 53.0011 64.2663C53.0011 64.565 53.1253 64.8086 53.3691 64.9924C53.5853 65.1441 53.8475 65.2176 54.1648 65.2176C54.4822 65.2176 54.749 65.1073 54.9835 64.8867C55.2227 64.6662 55.3423 64.3996 55.3423 64.0871C55.3423 63.508 55.0893 63.0714 54.5926 62.7681C54.1786 62.5292 53.6589 62.4097 53.0333 62.4097C51.9524 62.4097 51.0923 62.7773 50.453 63.5172C49.8504 64.2204 49.5469 65.1211 49.5469 66.2149C49.5469 67.373 49.8044 68.283 50.3196 68.9493C50.8991 69.6847 51.7501 70.0569 52.8769 70.0569C53.7739 70.0569 54.4776 69.7352 54.9927 69.0918C55.4113 68.5633 55.6275 67.9613 55.6367 67.2857H54.887C54.8778 67.8234 54.7352 68.2876 54.4592 68.6782C54.1326 69.1148 53.7141 69.3308 53.1989 69.3308C52.532 69.3308 52.0904 68.9447 51.865 68.1681C51.7547 67.7637 51.6995 67.1111 51.6995 66.2195C51.6995 64.1055 52.2928 63.0439 53.4749 63.0439C53.8705 63.0439 54.1694 63.1634 54.3672 63.4023C54.2752 63.3472 54.1418 63.3196 53.9762 63.3196" fill="white"/>
<path fill-rule="evenodd" clip-rule="evenodd" d="M35.2947 67.6154C35.497 68.7414 35.9984 69.3066 36.7941 69.3066C37.3093 69.3066 37.7692 69.0998 38.1694 68.6862C38.5695 68.2726 38.7719 67.8038 38.7811 67.2845H39.5032C39.4849 67.9279 39.2181 68.53 38.6937 69.0906C38.0958 69.734 37.3691 70.0557 36.5043 70.0557C35.3775 70.0557 34.5127 69.6881 33.901 68.9482C33.3399 68.268 33.0547 67.3581 33.0547 66.2137C33.0547 65.1521 33.3491 64.2651 33.9332 63.5528C34.5679 62.7899 35.4051 62.4131 36.4446 62.4131C37.4841 62.4131 38.3074 62.767 38.8455 63.4701C39.3285 64.0951 39.5768 64.9591 39.586 66.0483H35.1705C35.1705 66.6963 35.2165 67.2202 35.2947 67.6154ZM35.2119 64.7983C35.1935 64.9591 35.1797 65.1705 35.1705 65.4416H37.576C37.576 63.7872 37.1897 62.9554 36.4216 62.9554C35.7132 62.9554 35.3085 63.5712 35.2073 64.7983" fill="white"/>
<path fill-rule="evenodd" clip-rule="evenodd" d="M3.93721 59.9712H3.28408V64.691H3.93721C5.19749 64.691 5.82763 63.9235 5.82763 62.3839C5.82763 60.8444 5.19749 59.9712 3.93721 59.9712ZM3.23348 65.3573V68.3491C3.23348 68.7076 3.30247 68.942 3.44046 69.0615C3.57845 69.181 3.83142 69.2407 4.19479 69.2407H4.69614V69.8244H0V69.2407H0.179382C0.551946 69.2407 0.804921 69.1855 0.947507 69.0707C1.08549 68.9558 1.15449 68.7168 1.15449 68.3491V60.9225C1.15449 60.4399 1.0579 60.1458 0.869314 60.0447C0.758925 59.9758 0.469154 59.939 0 59.939V59.3691H3.95101C5.0917 59.3691 6.01161 59.5805 6.71074 59.9987C7.55706 60.5135 7.98021 61.3039 7.98021 62.3747C7.98021 63.4455 7.54326 64.213 6.67394 64.7277C5.97021 65.1459 5.0503 65.3573 3.92801 65.3573H3.23808H3.23348Z" fill="white"/>
<path fill-rule="evenodd" clip-rule="evenodd" d="M59.9315 68.4254C60.1155 68.1083 60.1937 67.6534 60.1937 67.0559V65.9851C59.513 66.123 59.0346 66.2976 58.7678 66.5228C58.4091 66.8077 58.2297 67.2673 58.2297 67.9015C58.2297 68.6736 58.4919 69.055 59.0162 69.055C59.3888 69.055 59.7016 68.8436 59.9269 68.4254M59.3428 62.4097C61.2378 62.4097 62.1761 63.2461 62.1761 64.9189V68.3887C62.1761 68.9585 62.3831 69.2435 62.797 69.2435H62.9994V69.8271H60.2995V68.839C60.1109 69.1975 59.8257 69.487 59.4532 69.7122C59.0806 69.9374 58.6943 70.0523 58.2895 70.0523C57.6778 70.0523 57.181 69.8915 56.8038 69.5652C56.3945 69.2159 56.1875 68.7517 56.1875 68.1635C56.1875 67.3776 56.5693 66.7618 57.3282 66.3206C57.9077 65.9805 58.8644 65.6772 60.1937 65.4153V64.2755C60.1937 63.4529 59.743 63.0393 58.8368 63.0393C58.5839 63.0393 58.3217 63.0944 58.0549 63.2047C57.8433 63.2874 57.6824 63.3885 57.5766 63.5034C57.7053 63.4621 57.7559 63.4529 57.8663 63.4529C58.4781 63.4529 58.7816 63.7424 58.7816 64.3215C58.7816 64.5926 58.6759 64.8132 58.4551 64.9879C58.2343 65.1625 57.9905 65.2498 57.7145 65.2498C57.3972 65.2498 57.135 65.1441 56.9372 64.9327C56.7348 64.7213 56.6337 64.4594 56.6337 64.1422C56.6337 63.5494 56.9556 63.0944 57.595 62.7773C58.1009 62.5338 58.6943 62.4097 59.352 62.4097" fill="white"/>
<path fill-rule="evenodd" clip-rule="evenodd" d="M17.858 68.4254C18.042 68.1083 18.1202 67.6534 18.1202 67.0559V65.9851C17.4394 66.123 16.9611 66.2976 16.6943 66.5228C16.3356 66.8077 16.1562 67.2673 16.1562 67.9015C16.1562 68.6736 16.4183 69.055 16.9427 69.055C17.3153 69.055 17.628 68.8436 17.8534 68.4254M17.2739 62.4097C19.1689 62.4097 20.1072 63.2461 20.1072 64.9189V68.3887C20.1072 68.9585 20.3142 69.2435 20.7235 69.2435H20.9259V69.8271H18.226V68.839C18.0374 69.1975 17.7522 69.487 17.3797 69.7122C17.0071 69.9374 16.6161 70.0523 16.2114 70.0523C15.5996 70.0523 15.1075 69.8915 14.7257 69.5652C14.3118 69.2159 14.1094 68.7517 14.1094 68.1635C14.1094 67.3776 14.4911 66.7618 15.2501 66.3206C15.8296 65.9805 16.7863 65.6772 18.1156 65.4153V64.2755C18.1156 63.4529 17.6648 63.0393 16.7587 63.0393C16.5057 63.0393 16.2482 63.0944 15.9768 63.2047C15.7652 63.2874 15.6042 63.3885 15.4984 63.5034C15.6272 63.4621 15.6778 63.4529 15.7882 63.4529C16.4 63.4529 16.7035 63.7424 16.7035 64.3215C16.7035 64.5926 16.5977 64.8132 16.377 64.9879C16.1608 65.1625 15.9124 65.2498 15.6364 65.2498C15.3191 65.2498 15.0569 65.1441 14.8545 64.9327C14.6521 64.7213 14.5509 64.4594 14.5509 64.1422C14.5509 63.5494 14.8729 63.0944 15.5122 62.7773C16.0182 62.5338 16.6115 62.4097 17.2693 62.4097" fill="white"/>
<path d="M5.21875 78.93V74.1045H6.13866V78.1533H8.24065V78.93H5.21875Z" fill="white"/>
<path d="M9.98748 74.1045H9.0625V78.93H9.98748V74.1045Z" fill="white"/>
<path d="M11.1641 78.9302V74.1047H14.2458V74.8814H12.0886V76.0303H13.703V76.807H12.0886V78.9302H11.1641Z" fill="white"/>
<path d="M14.9219 78.93V74.1045H18.1186V74.8812H15.8464V76.0301H17.4976V76.8068H15.8464V78.1533H18.1922V78.93H14.9219Z" fill="white"/>
<path d="M22.0656 74.1047H21.1406V78.9302H22.0656V74.1047Z" fill="white"/>
<path d="M23.2656 78.9302V74.1047H24.2315L26.1311 77.3953H26.1449V74.1047H27.0143V78.9302H26.1219L24.1487 75.4926H24.1349V78.9302H23.2656Z" fill="white"/>
<path d="M30.3556 75.3853C30.282 75.1969 30.1762 75.0452 30.0336 74.9303C29.8911 74.8154 29.7071 74.7557 29.4909 74.7557C29.2885 74.7557 29.1275 74.7971 28.9941 74.8844C28.8654 74.9671 28.801 75.105 28.801 75.2934C28.801 75.4313 28.8608 75.5462 28.9849 75.6381C29.1091 75.73 29.2609 75.8173 29.4449 75.8908C29.6289 75.969 29.8313 76.0471 30.0428 76.1298C30.259 76.2125 30.4568 76.309 30.6408 76.4285C30.8248 76.548 30.9811 76.6951 31.1053 76.8651C31.2295 77.0398 31.2893 77.2558 31.2893 77.5131C31.2893 78.014 31.1421 78.3863 30.8478 78.6299C30.5534 78.8734 30.1348 78.9975 29.5967 78.9975C29.3989 78.9975 29.2103 78.97 29.0217 78.9194C28.8332 78.8643 28.6584 78.7907 28.502 78.6896C28.341 78.5931 28.1984 78.4736 28.0742 78.3312C27.95 78.1887 27.8581 78.0278 27.7891 77.8578L28.5526 77.5223C28.663 77.7475 28.801 77.9313 28.9573 78.0692C29.1137 78.2071 29.3299 78.276 29.6013 78.276C29.7163 78.276 29.8267 78.2668 29.9233 78.2438C30.0198 78.2209 30.1072 78.1841 30.1808 78.1335C30.2544 78.083 30.3142 78.014 30.3556 77.9313C30.397 77.8486 30.42 77.7521 30.42 77.6326C30.42 77.4763 30.3602 77.3477 30.236 77.242C30.1118 77.1363 29.96 77.0444 29.7761 76.957C29.5875 76.8743 29.3897 76.7916 29.1781 76.7089C28.9619 76.6307 28.7642 76.5296 28.5802 76.4193C28.3962 76.3044 28.2398 76.1666 28.1156 76.0057C27.9914 75.8449 27.9316 75.6381 27.9316 75.3853C27.9316 75.1739 27.973 74.9809 28.0604 74.8108C28.1432 74.6408 28.2582 74.4983 28.4008 74.388C28.5434 74.2732 28.709 74.1858 28.8976 74.1261C29.0861 74.0663 29.2839 74.0342 29.4909 74.0342C29.8773 74.0342 30.2268 74.1261 30.5304 74.3145C30.834 74.5029 31.0593 74.7695 31.2019 75.1234L30.3602 75.3853H30.3556Z" fill="white"/>
<path d="M34.9872 74.1045H35.9117V77.1285C35.9117 77.4777 35.8612 77.7765 35.76 78.0154C35.6588 78.2544 35.5254 78.4474 35.3506 78.5945C35.1804 78.7416 34.9826 78.8472 34.7573 78.907C34.5319 78.9713 34.2973 79.0035 34.0535 79.0035C33.8098 79.0035 33.5752 78.9713 33.3498 78.907C33.1244 78.8472 32.9312 78.7416 32.7565 78.5945C32.5817 78.4474 32.4483 78.2544 32.3471 78.0154C32.2459 77.7765 32.1953 77.4823 32.1953 77.1285V74.1045H33.1198V77.1652C33.1198 77.5559 33.198 77.8316 33.3498 77.9879C33.5062 78.1441 33.7362 78.2222 34.0489 78.2222C34.3617 78.2222 34.5963 78.1441 34.7481 77.9879C34.8998 77.8316 34.978 77.5559 34.978 77.1652V74.1045H34.9872Z" fill="white"/>
<path d="M36.9968 78.93V74.1045H38.924C39.1954 74.1045 39.4299 74.1413 39.6277 74.2148C39.8255 74.2883 39.9819 74.3894 40.1061 74.5181C40.2303 74.6468 40.3223 74.7984 40.3821 74.9731C40.4418 75.1477 40.474 75.3361 40.474 75.5338C40.474 75.8325 40.405 76.0944 40.2533 76.315C40.1061 76.5356 39.8807 76.6919 39.5863 76.7792L40.6488 78.93H39.6231L38.7124 76.963H37.9167V78.93H36.9922H36.9968ZM37.9213 76.2139H38.602C38.9654 76.2139 39.2092 76.1588 39.3472 76.0439C39.4805 75.929 39.5449 75.7589 39.5449 75.5338C39.5449 75.3086 39.4805 75.1339 39.3472 75.0236C39.2138 74.9087 39.0206 74.8536 38.763 74.8536H37.9213V76.2185V76.2139Z" fill="white"/>
<path d="M42.4203 74.0977H43.5702L44.9409 78.9323H44.0256L43.7588 77.8891H42.2317L41.9466 78.9323H41.0312L42.4249 74.0977H42.4203ZM42.4341 77.1262H43.561L43.0183 75.026H43.0045L42.4341 77.1262Z" fill="white"/>
<path d="M45.5703 78.9302V74.1047H46.5316L48.4358 77.3953H48.4496V74.1047H49.3189V78.9302H48.4266L46.4534 75.4926H46.4396V78.9302H45.5703Z" fill="white"/>
<path d="M52.8544 75.507C52.79 75.3002 52.6796 75.1348 52.5371 75.0061C52.3899 74.8774 52.2059 74.8131 51.9805 74.8131C51.6723 74.8131 51.4286 74.9556 51.2538 75.2359C51.079 75.5208 50.987 75.9436 50.987 76.5181C50.9732 77.6532 51.3136 78.2231 52.0035 78.2231C52.1047 78.2231 52.2013 78.2093 52.2887 78.1909C52.3761 78.168 52.4543 78.1312 52.5325 78.076C52.6061 78.0255 52.6796 77.952 52.744 77.86C52.813 77.7681 52.882 77.6486 52.9464 77.5062L53.8019 77.736C53.6593 78.1542 53.434 78.4713 53.1304 78.6827C52.8222 78.8941 52.4497 78.9998 52.0035 78.9998C51.3826 78.9998 50.9042 78.7838 50.5685 78.3564C50.2327 77.9244 50.0625 77.3131 50.0625 76.5227C50.0625 75.7322 50.2327 75.1164 50.5685 74.6844C50.9042 74.2524 51.3826 74.041 52.0035 74.041C52.4681 74.041 52.836 74.1467 53.1074 74.3535C53.3788 74.5603 53.5766 74.882 53.6915 75.314L52.8544 75.5162V75.507Z" fill="white"/>
<path d="M54.5156 78.93V74.1045H57.7123V74.8812H55.4401V76.0301H57.0914V76.8068H55.4401V78.1533H57.7905V78.93H54.5156Z" fill="white"/>
</g>
</g>
<defs>
<clipPath id="clip0_1661_8251">
<rect width="63" height="79" fill="white"/>
</clipPath>
</defs>
</svg>
